<svg width="103" height="101" viewBox="0 0 103 101" fill="none" xmlns="http://www.w3.org/2000/svg">
<path d="M90.8096 85.1988C98.3863 76.7977 103 65.7016 103 53.5524C103 27.3879 81.5983 6.10079 55.2931 6.10079C42.688 6.10079 31.2101 10.9901 22.6712 18.9628C22.635 18.9227 22.5987 18.8787 22.5585 18.8386L9.28107 5.63228L19.7766 6.301C21.2179 6.40111 22.4619 5.30392 22.5545 3.87036C22.6471 2.4368 21.552 1.19945 20.1107 1.10735L2.78327 0.00615609C2.03043 -0.0459005 1.29771 0.234404 0.766293 0.762979C0.234874 1.29155 -0.0429131 2.02435 0.00539769 2.76917L1.11252 20.0039C1.20109 21.3814 2.3525 22.4386 3.72131 22.4386C3.77767 22.4386 3.83403 22.4386 3.89039 22.4346C5.33167 22.3425 6.42671 21.1051 6.33411 19.6715L5.67387 9.40839L18.8547 22.5186C18.9231 22.5867 18.9956 22.6508 19.068 22.7068C11.914 31.0079 7.58617 41.7836 7.58617 53.5484C7.58617 79.7128 28.9879 101 55.2931 101C67.5077 101 78.6594 96.411 87.1098 88.8748L97.7301 99.4383C98.2414 99.9469 98.9097 100.199 99.582 100.199C100.254 100.199 100.923 99.9469 101.434 99.4383C102.456 98.4212 102.456 96.7754 101.434 95.7583L90.8096 85.1988ZM55.2931 95.7983C31.8744 95.7983 12.8198 76.8457 12.8198 53.5524C12.8198 30.2591 31.8744 11.3064 55.2931 11.3064C78.7117 11.3064 97.7663 30.2591 97.7663 53.5524C97.7663 64.2641 93.7364 74.0587 87.1057 81.5108L73.1117 67.5917C76.1956 63.7315 78.0394 58.8542 78.0394 53.5524C78.0394 41.0788 67.8338 30.9278 55.2931 30.9278C42.7524 30.9278 32.5467 41.0788 32.5467 53.5524C32.5467 66.026 42.7524 76.177 55.2931 76.177C60.6234 76.177 65.5269 74.339 69.4079 71.2757L83.4019 85.1948C75.9097 91.79 66.0664 95.7983 55.2931 95.7983ZM57.3463 51.9106C56.3237 50.8935 54.6691 50.8935 53.6465 51.9106C52.6239 52.9277 52.6239 54.5735 53.6465 55.5906L65.6839 67.5636C62.7772 69.702 59.1821 70.9673 55.2971 70.9673C45.639 70.9673 37.7844 63.1548 37.7844 53.5484C37.7844 43.9419 45.639 36.1294 55.2971 36.1294C64.9552 36.1294 72.8098 43.9419 72.8098 53.5484C72.8098 57.4126 71.5376 60.9885 69.3878 63.8796L57.3463 51.9106Z" fill="#009F9C"/>
</svg>
