<svg width="34" height="32" viewBox="0 0 34 32" fill="none" xmlns="http://www.w3.org/2000/svg">
<path d="M33.721 15.6084C33.721 24.0564 26.3681 30.9377 17.2559 30.9377C8.14369 30.9377 0.790789 24.0564 0.790789 15.6084C0.790789 7.16037 8.14369 0.27907 17.2559 0.27907C26.3681 0.27907 33.721 7.16037 33.721 15.6084Z" stroke="white" stroke-width="0.55814"/>
<path d="M26.219 16.2014C26.5459 15.8744 26.5459 15.3443 26.219 15.0174L20.891 9.68941C20.5641 9.36246 20.034 9.36246 19.707 9.68941C19.3801 10.0164 19.3801 10.5465 19.707 10.8734L24.443 15.6094L19.707 20.3453C19.3801 20.6723 19.3801 21.2024 19.707 21.5293C20.034 21.8563 20.5641 21.8563 20.891 21.5293L26.219 16.2014ZM8.88281 16.4466L25.627 16.4466L25.627 14.7722L8.88281 14.7722L8.88281 16.4466Z" fill="white"/>
</svg>
