<svg width="131" height="124" viewBox="0 0 131 124" fill="none" xmlns="http://www.w3.org/2000/svg">
<path d="M2.9865 68.4321C1.3374 68.4321 0 67.0947 0 65.4474C0 63.7983 1.3374 62.4609 2.9865 62.4609H20.6282C22.2755 62.4609 23.6129 63.7983 23.6129 65.4474C23.6129 67.0947 22.2755 68.4321 20.6282 68.4321H2.9865V68.4321Z" fill="#009F9C"/>
<path d="M19.1737 23.3833C18.0085 22.2163 18.0085 20.3261 19.1737 19.1591C20.339 17.9938 22.2291 17.9938 23.3943 19.1591L35.8713 31.6379C37.0366 32.8031 37.0366 34.6932 35.8713 35.8585C34.7043 37.0255 32.8141 37.0255 31.6489 35.8585L19.1737 23.3833V23.3833Z" fill="#009F9C"/>
<path d="M62.4863 2.97382C62.4863 1.33197 63.8183 0 65.4601 0C67.1038 0 68.4358 1.33197 68.4358 2.97382L68.4376 20.6156C68.4376 22.2592 67.1056 23.5912 65.4638 23.5912C63.8201 23.5912 62.4881 22.2592 62.4881 20.6156L62.4863 2.97382V2.97382Z" fill="#009F9C"/>
<path d="M107.53 19.1591C108.695 17.9938 110.587 17.9938 111.752 19.1591C112.917 20.3261 112.917 22.2163 111.752 23.3833L99.2769 35.8585C98.108 37.0255 96.2179 37.0255 95.0526 35.8585C93.8874 34.6932 93.8874 32.8031 95.0526 31.6379L107.53 19.1591V19.1591Z" fill="#009F9C"/>
<path d="M127.937 62.4609C129.586 62.4609 130.924 63.7983 130.924 65.4474C130.924 67.0947 129.586 68.4321 127.937 68.4321H110.299C108.65 68.4321 107.312 67.0947 107.312 65.4474C107.312 63.7983 108.65 62.4609 110.299 62.4609H127.937Z" fill="#009F9C"/>
<path fill-rule="evenodd" clip-rule="evenodd" d="M77.3019 97.2872H65.4628H53.6219C53.1616 95.6635 52.502 94.1068 51.6938 92.6172C50.1498 89.7702 48.0476 87.1697 45.7824 84.8374C43.3468 82.3312 41.386 79.3519 40.0468 76.0501C38.7637 72.8842 38.0552 69.4156 38.0552 65.7713C38.0552 58.2018 41.1232 51.3498 46.0832 46.3898C51.0396 41.4299 57.8915 38.3636 65.461 38.3636L65.4628 32.3906V38.3636C73.0324 38.3636 79.8843 41.4299 84.8425 46.3898C89.8007 51.3498 92.8687 58.2018 92.8687 65.7713C92.8687 69.4156 92.1601 72.8842 90.8771 76.0501C89.5379 79.3519 87.5771 82.3312 85.1433 84.8374C82.8762 87.1697 80.7741 89.7702 79.2301 92.6172C78.4219 94.1068 77.7622 95.6635 77.3019 97.2872V97.2872ZM65.4628 103.26H76.5734V106.462H65.4628H54.3504V103.26H65.4628ZM65.4628 112.649L65.6767 112.435H75.1074C74.6162 113.293 74.0128 114.079 73.3205 114.771C71.3905 116.699 68.7556 117.923 65.8343 118.021V117.906L65.7202 118.022C65.635 118.026 65.548 118.026 65.4628 118.026L65.461 123.999C60.7439 123.999 56.4743 122.085 53.3827 118.996C50.2911 115.904 48.3774 111.634 48.3774 106.919V102.436C48.3774 99.9874 47.6308 97.6478 46.4438 95.4623C45.1735 93.1174 43.4157 90.95 41.5128 88.9892C38.5372 85.9247 36.1451 82.2985 34.5196 78.2881C32.9484 74.4173 32.084 70.1912 32.084 65.7713C32.084 56.5527 35.8189 48.2075 41.859 42.1674C47.899 36.1274 56.2442 32.3906 65.4628 32.3906C74.6797 32.3906 83.0248 36.1274 89.0649 42.1674C95.105 48.2075 98.8399 56.5527 98.8399 65.7713C98.8399 70.1912 97.9755 74.4173 96.4043 78.2881C94.7788 82.2985 92.3867 85.9247 89.411 88.9892C87.5082 90.95 85.7522 93.1174 84.48 95.4623C83.2931 97.6478 82.5464 99.9874 82.5464 102.436V106.919C82.5464 111.634 80.6327 115.904 77.5411 118.996C74.4495 122.085 70.18 123.999 65.4628 123.999V118.026C65.3759 118.026 65.2889 118.026 65.2037 118.022L65.0895 117.906V118.021C62.1683 117.923 59.5333 116.699 57.6033 114.771C56.9111 114.079 56.3076 113.293 55.8165 112.435H65.249L65.4628 112.649V112.649Z" fill="#009F9C"/>
</svg>
