<svg width="1440" height="116" viewBox="0 0 1440 116" fill="none" xmlns="http://www.w3.org/2000/svg">
<path d="M1440 78.283C1440 185.522 1436.83 8.76098 1436.83 116C956.852 116 478.977 116 -1 116C-1 -13.1442 0 141.652 0 11.9658C3.03303 11.4843 6.13509 10.4011 8.89239 10.7622C16.475 11.725 23.8507 13.6507 31.4333 14.6136C35.2246 15.095 39.2227 14.4331 43.1518 14.4933C45.3577 14.5534 47.5636 15.0951 49.7694 15.2756C51.0791 15.396 53.0091 15.6367 53.7674 14.9747C57.4897 11.725 62.1082 11.4242 66.8645 11.364C69.0014 11.364 71.4142 11.7852 73.2065 11.0631C81.6162 7.81341 89.8881 8.77619 98.2978 10.8223C99.6075 11.1232 100.986 11.4241 102.296 11.3037C108.362 10.7621 114.428 9.85944 120.563 9.49836C124.079 9.31783 128.077 9.01696 130.972 10.2807C135.728 12.2666 138.554 10.04 142.208 8.47535C145.654 6.97087 149.032 4.74422 153.651 6.48941C156.477 7.57264 160.061 7.45231 163.232 7.27177C166.886 7.03105 170.332 4.98497 174.261 6.66998C175.158 7.03105 176.674 6.54959 177.846 6.18852C181.292 5.04512 184.326 5.04512 187.841 6.48941C191.012 7.81335 194.665 8.23458 198.181 8.71601C202.386 9.25762 206.66 9.25759 210.865 9.73902C214.863 10.1603 218.723 11.3038 222.79 9.67893C226.168 8.35499 229.614 6.97085 233.199 6.48941C237.679 5.88762 242.367 5.58679 246.778 6.24876C252.638 7.09126 258.359 8.89663 264.011 10.4613C267.665 11.4843 271.112 12.8683 274.696 13.9516C275.247 14.1321 276.282 13.8914 276.695 13.5303C280.28 10.1603 285.243 12.086 288.138 12.9285C292.481 14.1321 296.617 14.9145 300.615 13.7711C311.024 10.7622 319.985 13.4702 328.877 17.9234C330.462 18.7058 332.806 18.8261 334.598 18.5252C339.699 17.6827 344.663 15.095 349.764 18.5252C350.729 19.1872 352.452 19.3678 353.762 19.1872C358.932 18.5855 363.688 19.7288 368.444 21.4138C372.58 22.8581 378.715 22.0156 380.645 19.9094C385.677 21.9555 390.641 24.3024 395.879 26.0476C398.223 26.8299 401.118 26.8299 403.738 26.6494C407.736 26.4087 411.941 26.7096 415.594 24.6034C416.008 24.3626 416.973 24.9042 417.731 25.0246C422.625 25.9273 427.588 26.89 432.483 27.7927C435.171 28.3343 438.273 28.3344 440.479 29.538C447.579 33.3895 455.092 31.9451 462.468 31.4035C466.949 31.1026 471.292 29.1167 475.772 28.6954C479.632 28.2742 483.699 28.9362 487.629 29.1168C491.696 29.3575 495.694 29.5982 499.692 29.8389C504.31 28.9964 509.136 28.0335 513.961 27.2512C517.201 26.7096 521.406 29.7185 523.68 25.3856C523.749 25.205 524.37 25.2653 524.783 25.2052C529.333 24.2423 534.158 23.8812 538.294 22.1962C544.912 19.4881 551.253 18.8863 558.147 21.0527C559.525 21.474 561.317 20.8721 562.903 20.8721C569.245 20.7518 575.518 20.6917 581.859 20.6917C582.204 20.6917 582.549 20.9324 582.893 21.0527C584.548 21.5943 586.271 22.6776 587.788 22.4971C593.026 22.0157 598.265 21.2333 603.435 20.2103C608.95 19.0669 614.327 17.4421 619.841 16.1783C623.77 15.2756 627.837 14.7941 631.835 13.8915C633.765 13.4702 635.558 12.5073 637.557 12.0259C639.211 11.6046 641.141 11.8453 642.658 11.2435C645.622 10.1603 648.379 8.59568 651.343 7.3921C656.1 5.46637 660.787 3.42034 665.75 2.03622C669.679 0.953002 674.229 -0.310787 678.089 0.351183C683.673 1.31405 688.911 1.2539 694.357 0.230854C695.943 -0.0700411 698.493 -0.190487 699.32 0.59184C700.699 1.97596 701.94 2.0964 703.663 2.03622C707.11 1.91587 710.556 2.03617 713.934 1.97599C716.485 1.97599 719.104 1.49458 721.517 1.85566C725.997 2.51763 730.754 3.05924 734.614 4.86461C738.681 6.79034 741.852 10.1001 745.919 13.2294C751.089 10.3408 755.983 7.57258 760.946 4.9247C761.497 4.62381 762.738 4.80443 763.29 5.1655C766.047 7.21159 768.391 8.6558 772.665 9.13723C777.766 9.73902 783.901 12.0258 786.106 17.5623C786.313 18.0437 787.485 18.2845 788.312 18.4049C789.277 18.5854 790.587 18.1642 791.276 18.5855C796.929 21.7148 802.374 19.0067 806.924 17.2013C814.507 14.2525 820.779 15.8172 827.328 18.7058C830.154 19.9695 832.843 21.7147 835.876 22.4369C839.391 23.2794 843.32 23.0989 846.905 23.821C850.007 24.3626 853.04 26.3485 856.073 26.2282C861.656 25.9273 866.482 27.4919 871.1 29.6583C876.201 32.0053 881.578 32.9081 887.161 33.0284C887.92 33.0284 888.885 33.2089 889.367 32.8479C893.986 29.9593 898.535 32.6673 903.154 33.0284C906.463 33.2691 909.702 34.1717 913.011 34.2921C915.561 34.4125 918.25 34.1116 919.146 31.1628C919.353 30.561 920.663 30.1398 921.421 29.7186C922.593 29.0566 923.696 28.3946 924.936 27.9132C928.797 26.2884 932.588 24.5432 936.517 23.2192C938.103 22.6776 940.377 23.4599 941.825 22.8581C944.72 21.6545 946.995 22.1962 949.339 23.7007C949.821 24.0016 950.441 24.1821 950.993 24.4228C958.369 27.191 966.227 28.876 972.982 32.8479C975.809 34.5329 978.98 35.8567 981.737 37.6019C984.218 39.1666 986.355 41.2127 988.837 42.8375C990.284 43.8004 992.008 44.4623 993.662 45.2446C997.729 47.1102 1001.18 49.8785 1006.48 49.2165C1010.21 48.7953 1014.48 49.1563 1017.93 50.4201C1022.2 51.9848 1026.34 52.2255 1030.75 52.2255C1032.06 52.2255 1033.78 52.406 1034.54 53.1282C1040.12 58.3637 1047.29 56.8592 1054.12 56.9796C1056.46 57.0397 1058.73 57.2204 1061.08 57.5213C1062.59 57.762 1063.97 58.5443 1065.42 58.7248C1068.25 59.0859 1071.14 59.2062 1073.97 59.447C1076.31 59.6275 1078.93 60.5904 1080.93 59.9284C1086.86 58.0629 1092.03 58.785 1097.41 61.3126C1099.34 62.2153 1101.82 62.2754 1104.09 62.7568C1105.4 63.0577 1106.64 63.5391 1107.88 63.9001C1111.33 64.863 1114.91 66.7286 1118.29 66.4879C1125.05 66.0064 1132.01 68.5341 1138.56 65.5251C1138.9 65.3446 1139.52 65.5852 1140.01 65.6454C1143.59 66.0065 1147.17 66.3676 1150.69 66.7287C1153.17 66.9694 1155.65 67.0898 1158.07 67.6314C1161.17 68.2933 1164.2 69.3163 1167.23 70.1589C1170.54 71.0615 1173.44 71.0013 1176.33 68.7747C1177.5 67.872 1180.12 67.3906 1181.43 67.9323C1187.91 70.6403 1194.6 71.543 1201.77 71.543C1206.8 71.543 1212.18 71.8438 1216.73 75.0935C1219.07 76.7785 1222.66 77.1396 1225.69 77.9219C1228.79 78.7042 1232.03 79.2458 1235.2 79.8476C1236.1 80.0281 1237.27 79.2459 1238.37 79.306C1242.72 79.5467 1247.06 79.7273 1251.33 80.5698C1256.02 81.4725 1260.64 80.6902 1263.95 78.4636C1267.32 76.1768 1270.56 76.3573 1273.8 76.7785C1280.56 77.5609 1287.25 78.7043 1293.86 80.0884C1301.17 81.7132 1308.13 80.5096 1315.09 79.0051C1323.02 77.2599 1330.81 76.1767 1338.81 79.1857C1341.08 80.0282 1344.12 79.607 1346.8 79.4866C1352.25 79.2459 1357.69 78.5838 1363.14 78.644C1365.83 78.7042 1368.52 80.7504 1371.21 80.6902C1378.31 80.63 1384.51 82.4956 1390.78 85.0833C1392.44 85.7452 1394.92 86.0461 1396.43 85.3842C1399.95 84.0001 1403.12 81.9538 1406.5 80.1485C1407.12 79.7874 1407.81 79.3662 1408.5 79.306C1414.01 79.0051 1419.6 78.1025 1424.97 78.7645C1429.18 79.2459 1432.97 79.7875 1436.83 78.1627C1437.93 78.283 1439.03 78.3432 1440 78.283Z" fill="#16455F"/>
</svg>
