<svg width="112" height="95" viewBox="0 0 112 95" fill="none" xmlns="http://www.w3.org/2000/svg">
<path d="M29.3592 74.9538C28.7462 74.9538 28.1375 74.7003 27.7 74.2L27.6848 74.1827C26.8791 73.2621 26.9722 71.8607 27.8949 71.0528C28.8112 70.247 30.2148 70.338 31.0248 71.2629C31.8306 72.1834 31.744 73.5935 30.8234 74.4014C30.401 74.7718 29.8769 74.9538 29.3592 74.9538Z" fill="#009F9C"/>
<path d="M38.4153 84.7827C37.8175 84.7827 37.2197 84.5423 36.7821 84.0658L35.3721 82.5301C34.5425 81.6268 34.6031 80.2232 35.5042 79.3958C36.4074 78.5684 37.8088 78.6291 38.6384 79.528L40.0485 81.0637C40.8781 81.9669 40.8174 83.3705 39.9164 84.1979C39.4897 84.59 38.9525 84.7827 38.4153 84.7827Z" fill="#009F9C"/>
<path d="M21.7281 66.6478C21.1433 66.6478 20.5628 66.4161 20.1296 65.9525L20.0993 65.92C19.2653 65.0233 19.313 63.6197 20.2076 62.7836C21.1065 61.9497 22.5057 61.9952 23.344 62.8919C24.1779 63.7887 24.1454 65.2074 23.2508 66.0435C22.8176 66.4464 22.2718 66.6478 21.7281 66.6478Z" fill="#009F9C"/>
<path d="M7.47048 49.1602C6.56508 49.1602 5.71383 48.5992 5.38676 47.6981L2.03808 38.4806C1.61787 37.3294 2.21353 36.0568 3.36369 35.6388C4.52035 35.2186 5.78747 35.8131 6.20552 36.9665L9.5542 46.1841C9.9744 47.3353 9.37875 48.6079 8.22859 49.0259C7.97733 49.1169 7.72174 49.1602 7.47048 49.1602Z" fill="#009F9C"/>
<path d="M82.1805 74.9838C82.1761 74.9838 82.1718 74.9838 82.1675 74.9838C79.9018 74.9816 77.8701 74.1109 76.4513 72.5319L64.4321 59.174L67.7287 56.2065L79.748 69.5644C80.517 70.4178 81.5978 70.5478 82.174 70.5478C82.1761 70.5478 82.1783 70.5478 82.1805 70.5478C83.2072 70.5478 84.2101 70.1752 84.9335 69.5254C86.3436 68.2583 86.4584 66.0793 85.1913 64.6713L52.9218 28.803L34.5452 26.7637L33.7005 30.3528C32.0586 36.4491 28.0298 39.2584 22.1101 38.5577L21.7938 38.4971C18.8589 37.7065 16.4611 35.8805 15.0445 33.356C13.5066 30.6192 13.2055 27.2489 14.1954 23.8666L17.0589 14.3784C18.5318 9.33802 23.4205 6.04674 28.6623 6.54601L67.0746 10.5477L99.1037 45.8659L95.8156 48.8464L64.9259 14.7845L28.2183 10.9593C25.0797 10.6593 22.1924 12.625 21.3108 15.6422L18.4473 25.1305C17.8018 27.3399 17.9643 29.4972 18.913 31.1846C19.7274 32.6391 21.0682 33.669 22.7945 34.1704C26.4096 34.5484 28.3742 33.0733 29.3987 29.2666L31.1316 21.9226L55.0878 24.5793L88.488 61.7039C91.3926 64.9334 91.1283 69.9196 87.901 72.8221C86.3739 74.1975 84.2902 74.9838 82.1805 74.9838Z" fill="#009F9C"/>
<path d="M73.5745 83.1141C71.4171 83.1141 69.2684 82.2368 67.7175 80.5105L55.6982 67.1504L58.9949 64.183L71.0142 77.543C72.2813 78.951 74.4582 79.0701 75.8683 77.8008C76.5939 77.1488 77.0704 76.1871 77.1766 75.1626C77.2372 74.5907 77.2221 73.5012 76.4553 72.6478L64.436 59.2878L67.7327 56.3203L79.752 69.6804C81.1729 71.2572 81.8249 73.3691 81.5888 75.6239C81.37 77.7272 80.365 79.7221 78.8357 81.0975C77.3325 82.4491 75.4502 83.1141 73.5745 83.1141Z" fill="#009F9C"/>
<path d="M61.703 88.9133C59.5413 88.9133 57.4272 88.0859 55.95 86.4462L46.3047 75.7244L49.6014 72.757L59.2467 83.4788C60.4553 84.8174 62.9224 84.7936 64.4322 83.4376C65.1924 82.7532 65.7469 81.6745 65.9181 80.5525C66.0762 79.502 65.8682 78.5684 65.3484 77.9901L55.7031 67.2682L58.9998 64.3008L68.6451 75.0226C70.0573 76.5908 70.6617 78.8478 70.3043 81.2153C69.9794 83.3553 68.9223 85.3654 67.3996 86.7343C65.7816 88.1921 63.7217 88.9133 61.703 88.9133Z" fill="#009F9C"/>
<path d="M49.5488 94.2512C47.4564 94.2512 45.3943 93.4996 43.8434 92.0051L36.7627 84.1424L40.0594 81.1749L47.0318 88.925C48.3033 90.1401 50.6989 90.1509 52.2779 88.834C53.2202 88.0456 53.805 86.9409 53.8851 85.8037C53.9501 84.8897 53.6837 84.0471 53.1335 83.4363L46.1611 75.6862L49.4578 72.7188L56.4302 80.4688C57.7927 81.985 58.462 83.9886 58.3103 86.1156C58.1457 88.4463 56.9847 90.6773 55.1263 92.2347C53.5169 93.5819 51.5198 94.2512 49.5488 94.2512Z" fill="#009F9C"/>
<path d="M8.19527 62.0607C8.06964 62.0607 7.94618 62.0564 7.82055 62.0499C5.96643 61.9524 4.26176 61.138 3.02063 59.7582L1.78383 58.3828C0.54053 57.0031 -0.0876176 55.2204 0.00985359 53.3685C0.107325 51.5143 0.921751 49.8097 2.30151 48.5686L5.2603 45.9065C7.82704 43.5964 11.793 43.8022 14.1064 46.3733L16.2616 48.7678C17.3814 50.0111 17.9489 51.6162 17.8601 53.2862C17.7713 54.9562 17.037 56.494 15.7937 57.6117L12.8349 60.2759C11.5483 61.4348 9.91293 62.0607 8.19527 62.0607ZM6.31732 56.7908C7.24222 57.8175 8.83858 57.9063 9.86744 56.9792L12.8262 54.315C13.1901 53.988 13.4046 53.5396 13.4306 53.0522C13.4565 52.5649 13.2919 52.097 12.9649 51.7353L10.8097 49.3418C10.1339 48.588 8.97937 48.5296 8.22776 49.2032L5.26897 51.8652C4.23794 52.7923 4.15346 54.3843 5.08052 55.4154L6.31732 56.7908Z" fill="#009F9C"/>
<path d="M15.7373 70.4427C15.6116 70.4427 15.4882 70.4383 15.3625 70.4318C13.5084 70.3344 11.8038 69.5199 10.5626 68.1402L9.32582 66.7669C8.08252 65.3872 7.45437 63.6067 7.55185 61.7526C7.64932 59.8984 8.46374 58.1938 9.8435 56.9527L12.8045 54.2884C14.0478 53.1686 15.629 52.5946 17.325 52.6899C18.995 52.7787 20.5328 53.513 21.6505 54.7563L23.8035 57.1498C26.1125 59.7165 25.9046 63.6847 23.3379 65.9958L20.3769 68.6579C19.0903 69.8167 17.4549 70.4427 15.7373 70.4427ZM16.9892 57.1173C16.5387 57.1173 16.1098 57.2819 15.7719 57.5851L12.811 60.2493C11.7799 61.1764 11.6955 62.7684 12.6225 63.7995L13.8593 65.1727C14.7842 66.1994 16.3784 66.2904 17.4094 65.3612L20.3704 62.6991C21.1198 62.0255 21.1805 60.8667 20.5069 60.1172L18.3538 57.7238C18.0268 57.3599 17.5784 57.1454 17.0889 57.1194C17.0564 57.1173 17.0239 57.1173 16.9892 57.1173Z" fill="#009F9C"/>
<path d="M23.2731 78.8225C21.3713 78.8225 19.476 78.0492 18.1049 76.5265L16.8681 75.1489C14.3079 72.3027 14.5397 67.9014 17.3858 65.3368L20.3468 62.6748C21.5922 61.5549 23.2016 60.9831 24.8673 61.0762C26.5373 61.1629 28.0752 61.8972 29.1928 63.1405L31.3459 65.5339C33.657 68.1028 33.4469 72.071 30.8802 74.38L27.9192 77.042C26.5936 78.2355 24.9301 78.8225 23.2731 78.8225ZM21.4016 73.559C22.3309 74.5879 23.9251 74.6724 24.9518 73.7453L27.9127 71.0833C28.6622 70.4096 28.7228 69.2508 28.0492 68.5014L25.8961 66.1079C25.2203 65.3606 24.0658 65.2978 23.3142 65.9715L20.3533 68.6335C19.3244 69.5606 19.2399 71.1526 20.167 72.1836L21.4016 73.559Z" fill="#009F9C"/>
<path d="M30.8219 87.2116C30.6984 87.2116 30.5728 87.2073 30.4472 87.2008C28.593 87.1033 26.8884 86.2889 25.6472 84.9091L24.4126 83.5359C21.848 80.6854 22.082 76.2819 24.9303 73.7194L27.8891 71.0574C30.4558 68.7484 34.424 68.9563 36.7351 71.5231L38.8903 73.9209C40.008 75.162 40.5755 76.767 40.4867 78.4392C40.4001 80.1092 39.6658 81.6471 38.4225 82.7648L35.4637 85.4268C34.1771 86.5856 32.5417 87.2116 30.8219 87.2116ZM28.9439 81.9417C29.3945 82.442 30.0096 82.7366 30.6811 82.7713C31.3396 82.8016 31.9959 82.5785 32.4962 82.1301L35.455 79.4681C36.2045 78.7944 36.2651 77.6356 35.5915 76.8862L33.4363 74.4884C32.7648 73.7454 31.606 73.6805 30.8565 74.3541L27.8977 77.0161C27.3974 77.4667 27.1028 78.0818 27.0682 78.7533C27.0335 79.4248 27.2609 80.0702 27.7093 80.5684L28.9439 81.9417Z" fill="#009F9C"/>
<path d="M97.727 49.9655C97.6902 49.9655 97.6534 49.9634 97.6166 49.9612C97.0274 49.933 96.4772 49.671 96.083 49.2334L64.3551 14.1535C63.532 13.2449 63.6035 11.8424 64.511 11.0204L76.0581 0.575785C76.4956 0.181568 77.0696 -0.0404493 77.6566 0.00612024C78.2458 0.0353616 78.796 0.296368 79.1902 0.732822L110.918 35.8138C111.741 36.7224 111.67 38.1249 110.762 38.947L99.2151 49.3915C98.8057 49.7619 98.2751 49.9655 97.727 49.9655ZM69.1312 12.8225L97.8852 44.6133L106.142 37.1448L77.3881 5.35404L69.1312 12.8225Z" fill="#009F9C"/>
<path d="M98.6529 41.8491C96.6494 41.8491 95.0205 40.2191 95.0205 38.2155C95.0205 36.212 96.6494 34.582 98.6529 34.582C100.657 34.582 102.285 36.212 102.285 38.2155C102.285 40.2191 100.657 41.8491 98.6529 41.8491ZM98.6529 36.8C97.8732 36.8 97.2385 37.4347 97.2385 38.2155C97.2385 38.9964 97.8732 39.631 98.6529 39.631C99.4327 39.631 100.067 38.9964 100.067 38.2155C100.067 37.4347 99.4327 36.8 98.6529 36.8Z" fill="#009F9C"/>
</svg>
