<svg width="993" height="601" viewBox="0 0 993 601" fill="none" xmlns="http://www.w3.org/2000/svg">
<path d="M0 240.6H391.3V360.5V360.6V361.7V601H392.3V377.2C399.9 436 450.4 481.6 511.2 481.6H992.3V359.5C992.3 293.4 938.5 239.6 872.4 239.6H872.3V120.5C872.3 54.1 818.2 0 751.8 0H391.3V239.6H0V240.6ZM871.3 239.6H392.3V1H751.8C817.7 1 871.3 54.6 871.3 120.5V239.6ZM392.3 360.5V240.6H871.3V480.5H872.3V240.6H872.4C938 240.6 991.3 294 991.3 359.5V480.6H511.2C445.6 480.6 392.3 427.2 392.3 361.7V360.6V360.5Z" fill="white"/>
</svg>
