<svg width="386" height="384" viewBox="0 0 386 384" fill="none" xmlns="http://www.w3.org/2000/svg">
<path d="M274.946 193.467C274.97 194.138 274.986 194.811 274.994 195.486L274.494 195.492C274.498 195.828 274.5 196.164 274.5 196.5C274.5 196.836 274.498 197.172 274.494 197.508L274.994 197.514C274.986 198.189 274.97 198.862 274.946 199.533L274.446 199.515C274.422 200.185 274.39 200.852 274.35 201.518L274.849 201.548C274.809 202.222 274.76 202.893 274.704 203.563L274.205 203.521C274.149 204.188 274.085 204.854 274.013 205.516L274.51 205.57C274.437 206.242 274.356 206.91 274.267 207.577L273.772 207.51C273.683 208.174 273.587 208.835 273.483 209.494L273.976 209.572C273.871 210.239 273.757 210.903 273.636 211.564L273.144 211.474C273.024 212.132 272.895 212.788 272.759 213.441L273.248 213.543C273.11 214.204 272.965 214.861 272.811 215.516L272.324 215.402C272.171 216.054 272.011 216.702 271.843 217.348L272.327 217.474C272.157 218.127 271.979 218.776 271.793 219.423L271.313 219.285C271.128 219.928 270.936 220.568 270.736 221.205L271.213 221.354C271.011 221.998 270.802 222.638 270.585 223.275L270.112 223.114C269.896 223.747 269.672 224.377 269.442 225.003L269.911 225.176C269.678 225.809 269.437 226.438 269.189 227.063L268.724 226.879C268.477 227.501 268.223 228.119 267.962 228.733L268.422 228.929C268.158 229.55 267.887 230.166 267.609 230.778L267.154 230.571C266.877 231.181 266.593 231.786 266.301 232.387L266.751 232.605C266.457 233.211 266.156 233.814 265.848 234.412L265.404 234.183C265.097 234.777 264.784 235.368 264.464 235.954L264.902 236.194C264.579 236.785 264.249 237.372 263.912 237.954L263.479 237.704C263.144 238.283 262.802 238.858 262.453 239.428L262.88 239.689C262.528 240.263 262.17 240.833 261.805 241.398L261.385 241.127C261.022 241.689 260.652 242.246 260.276 242.799L260.689 243.08C260.31 243.637 259.924 244.188 259.532 244.735L259.126 244.443C258.736 244.987 258.339 245.526 257.936 246.059L258.335 246.361C257.93 246.898 257.517 247.43 257.099 247.957L256.707 247.646C256.291 248.17 255.869 248.689 255.441 249.202L255.824 249.522C255.393 250.039 254.956 250.551 254.512 251.057L254.136 250.727C253.695 251.23 253.248 251.727 252.795 252.219L253.163 252.558C252.707 253.053 252.245 253.543 251.777 254.026L251.417 253.679C250.952 254.16 250.482 254.635 250.005 255.104L250.356 255.46C249.876 255.933 249.391 256.399 248.9 256.859L248.558 256.495C248.07 256.952 247.577 257.404 247.078 257.849L247.411 258.222C246.909 258.671 246.402 259.113 245.889 259.549L245.565 259.168C245.055 259.601 244.54 260.028 244.02 260.448L244.335 260.837C243.811 261.26 243.283 261.677 242.749 262.087L242.445 261.691C241.914 262.099 241.379 262.5 240.839 262.894L241.134 263.298C240.591 263.695 240.043 264.085 239.489 264.469L239.204 264.058C238.655 264.439 238.101 264.814 237.542 265.182L237.817 265.599C237.255 265.969 236.688 266.332 236.116 266.688L235.852 266.264C235.285 266.617 234.713 266.964 234.136 267.304L234.39 267.734C233.811 268.076 233.227 268.411 232.638 268.738L232.395 268.301C231.811 268.626 231.223 268.944 230.63 269.255L230.863 269.698C230.267 270.01 229.667 270.316 229.063 270.614L228.841 270.166C228.242 270.461 227.639 270.75 227.032 271.031L227.242 271.485C226.632 271.767 226.017 272.042 225.399 272.31L225.2 271.852C224.587 272.117 223.971 272.375 223.35 272.626L223.537 273.089C222.914 273.341 222.286 273.586 221.655 273.823L221.48 273.354C220.855 273.589 220.226 273.816 219.594 274.036L219.758 274.508C219.122 274.728 218.483 274.941 217.841 275.147L217.689 274.67C217.053 274.873 216.414 275.069 215.772 275.256L215.912 275.736C215.266 275.925 214.618 276.106 213.966 276.279L213.837 275.796C213.193 275.967 212.545 276.13 211.894 276.285L212.01 276.772C211.356 276.928 210.699 277.076 210.039 277.217L209.935 276.728C209.282 276.866 208.627 276.997 207.969 277.12L208.061 277.611C207.4 277.735 206.736 277.85 206.07 277.958L205.991 277.464C205.332 277.57 204.671 277.668 204.008 277.758L204.075 278.254C203.409 278.344 202.741 278.427 202.07 278.501L202.015 278.004C201.352 278.077 200.687 278.143 200.02 278.2L200.062 278.698C199.393 278.756 198.722 278.805 198.048 278.846L198.017 278.347C197.352 278.388 196.684 278.42 196.014 278.445L196.033 278.945C195.362 278.969 194.689 278.986 194.014 278.994L194.008 278.494C193.672 278.498 193.336 278.5 193 278.5C192.664 278.5 192.328 278.498 191.992 278.494L191.986 278.994C191.311 278.986 190.638 278.969 189.967 278.945L189.986 278.445C189.316 278.42 188.648 278.388 187.983 278.347L187.952 278.846C187.278 278.805 186.607 278.756 185.938 278.698L185.98 278.2C185.313 278.143 184.648 278.077 183.985 278.004L183.93 278.501C183.259 278.427 182.591 278.344 181.925 278.254L181.992 277.758C181.329 277.668 180.668 277.57 180.009 277.464L179.93 277.958C179.264 277.85 178.6 277.735 177.939 277.611L178.031 277.12C177.373 276.997 176.718 276.866 176.065 276.728L175.961 277.217C175.301 277.076 174.644 276.928 173.99 276.772L174.106 276.285C173.455 276.13 172.807 275.967 172.163 275.796L172.034 276.279C171.382 276.106 170.734 275.925 170.088 275.736L170.228 275.256C169.586 275.069 168.947 274.873 168.311 274.67L168.159 275.147C167.517 274.941 166.878 274.728 166.242 274.508L166.406 274.036C165.774 273.816 165.145 273.589 164.52 273.354L164.345 273.823C163.714 273.586 163.086 273.341 162.463 273.089L162.65 272.626C162.029 272.375 161.413 272.117 160.8 271.852L160.601 272.31C159.983 272.042 159.368 271.767 158.758 271.485L158.968 271.031C158.361 270.75 157.758 270.461 157.159 270.166L156.937 270.614C156.333 270.316 155.733 270.011 155.137 269.698L155.37 269.255C154.777 268.944 154.189 268.626 153.605 268.301L153.362 268.738C152.773 268.411 152.189 268.076 151.61 267.734L151.864 267.304C151.287 266.964 150.715 266.617 150.148 266.264L149.884 266.688C149.312 266.332 148.745 265.969 148.183 265.599L148.458 265.182C147.899 264.814 147.345 264.439 146.796 264.058L146.511 264.469C145.957 264.085 145.409 263.695 144.866 263.298L145.161 262.894C144.621 262.5 144.086 262.099 143.555 261.691L143.251 262.087C142.717 261.677 142.189 261.26 141.665 260.837L141.98 260.448C141.46 260.028 140.945 259.601 140.435 259.168L140.111 259.548C139.598 259.113 139.091 258.67 138.589 258.222L138.922 257.849C138.423 257.404 137.93 256.952 137.442 256.495L137.1 256.859C136.609 256.399 136.124 255.933 135.644 255.46L135.995 255.104C135.518 254.635 135.048 254.16 134.583 253.679L134.223 254.026C133.755 253.543 133.293 253.053 132.837 252.558L133.205 252.219C132.752 251.727 132.305 251.23 131.864 250.727L131.488 251.057C131.044 250.551 130.607 250.039 130.175 249.522L130.559 249.202C130.131 248.689 129.709 248.17 129.293 247.646L128.901 247.957C128.483 247.43 128.07 246.898 127.665 246.361L128.064 246.059C127.661 245.526 127.264 244.987 126.874 244.443L126.468 244.735C126.076 244.188 125.69 243.637 125.311 243.08L125.724 242.799C125.348 242.246 124.978 241.689 124.615 241.127L124.195 241.398C123.83 240.833 123.472 240.263 123.12 239.689L123.547 239.428C123.198 238.858 122.856 238.283 122.521 237.704L122.088 237.954C121.751 237.372 121.421 236.785 121.098 236.194L121.536 235.954C121.216 235.368 120.903 234.777 120.596 234.183L120.152 234.412C119.844 233.814 119.543 233.211 119.249 232.605L119.699 232.387C119.407 231.786 119.123 231.181 118.846 230.571L118.391 230.778C118.113 230.166 117.842 229.55 117.578 228.929L118.038 228.733C117.777 228.119 117.523 227.501 117.276 226.879L116.811 227.063C116.563 226.438 116.322 225.809 116.089 225.176L116.558 225.003C116.328 224.377 116.104 223.747 115.888 223.114L115.415 223.275C115.198 222.638 114.989 221.998 114.787 221.354L115.264 221.205C115.064 220.568 114.872 219.928 114.687 219.285L114.207 219.423C114.021 218.776 113.843 218.127 113.673 217.474L114.157 217.348C113.989 216.702 113.829 216.054 113.676 215.402L113.189 215.516C113.035 214.861 112.89 214.204 112.752 213.543L113.241 213.441C113.105 212.788 112.976 212.132 112.856 211.474L112.364 211.564C112.243 210.903 112.129 210.239 112.024 209.572L112.517 209.494C112.413 208.835 112.317 208.174 112.228 207.51L111.733 207.577C111.644 206.91 111.563 206.242 111.49 205.57L111.987 205.516C111.915 204.854 111.851 204.188 111.795 203.521L111.296 203.563C111.24 202.893 111.191 202.222 111.151 201.548L111.65 201.518C111.61 200.852 111.578 200.185 111.554 199.515L111.054 199.533C111.03 198.862 111.014 198.189 111.006 197.514L111.506 197.508C111.502 197.172 111.5 196.836 111.5 196.5C111.5 196.164 111.502 195.828 111.506 195.492L111.006 195.486C111.014 194.811 111.03 194.138 111.054 193.467L111.554 193.485C111.578 192.815 111.61 192.148 111.65 191.482L111.151 191.452C111.191 190.778 111.24 190.107 111.296 189.437L111.795 189.479C111.851 188.812 111.915 188.146 111.987 187.484L111.49 187.43C111.563 186.758 111.644 186.09 111.733 185.423L112.228 185.49C112.317 184.826 112.413 184.165 112.517 183.506L112.024 183.428C112.129 182.761 112.243 182.097 112.364 181.436L112.856 181.526C112.976 180.868 113.105 180.212 113.241 179.559L112.752 179.457C112.89 178.796 113.035 178.139 113.189 177.484L113.676 177.598C113.829 176.946 113.989 176.298 114.157 175.652L113.673 175.526C113.843 174.873 114.021 174.224 114.207 173.577L114.687 173.715C114.872 173.072 115.064 172.432 115.264 171.795L114.787 171.646C114.989 171.002 115.198 170.362 115.415 169.725L115.888 169.886C116.104 169.253 116.328 168.623 116.558 167.997L116.089 167.824C116.322 167.191 116.563 166.562 116.811 165.937L117.276 166.121C117.523 165.499 117.777 164.881 118.038 164.267L117.578 164.071C117.842 163.45 118.113 162.834 118.391 162.222L118.846 162.429C119.123 161.819 119.407 161.214 119.699 160.613L119.249 160.395C119.543 159.789 119.844 159.186 120.152 158.588L120.596 158.817C120.903 158.223 121.216 157.632 121.536 157.046L121.098 156.806C121.421 156.215 121.751 155.628 122.088 155.046L122.521 155.296C122.856 154.717 123.198 154.142 123.547 153.572L123.12 153.311C123.472 152.737 123.83 152.167 124.195 151.602L124.615 151.873C124.978 151.311 125.348 150.754 125.724 150.201L125.311 149.92C125.69 149.363 126.076 148.812 126.468 148.265L126.874 148.557C127.264 148.013 127.661 147.474 128.064 146.941L127.665 146.639C128.07 146.102 128.483 145.57 128.901 145.043L129.293 145.354C129.709 144.83 130.131 144.311 130.559 143.798L130.176 143.478C130.607 142.961 131.044 142.449 131.488 141.943L131.864 142.273C132.305 141.77 132.752 141.273 133.205 140.781L132.837 140.442C133.293 139.947 133.755 139.457 134.223 138.974L134.583 139.321C135.048 138.84 135.518 138.365 135.995 137.896L135.644 137.54C136.124 137.067 136.609 136.601 137.1 136.141L137.442 136.505C137.93 136.048 138.423 135.596 138.922 135.151L138.589 134.778C139.091 134.33 139.598 133.887 140.111 133.451L140.435 133.832C140.945 133.399 141.46 132.972 141.98 132.552L141.665 132.163C142.189 131.74 142.717 131.323 143.251 130.913L143.555 131.309C144.086 130.901 144.621 130.5 145.161 130.106L144.866 129.702C145.409 129.305 145.957 128.915 146.511 128.531L146.796 128.942C147.345 128.561 147.899 128.186 148.458 127.818L148.183 127.401C148.745 127.031 149.312 126.668 149.884 126.312L150.148 126.736C150.715 126.383 151.287 126.036 151.864 125.696L151.61 125.266C152.189 124.924 152.773 124.589 153.362 124.262L153.605 124.699C154.189 124.374 154.777 124.056 155.37 123.745L155.137 123.302C155.733 122.989 156.333 122.684 156.937 122.386L157.159 122.834C157.758 122.539 158.361 122.25 158.968 121.969L158.758 121.515C159.368 121.233 159.983 120.958 160.601 120.69L160.8 121.148C161.413 120.883 162.029 120.625 162.65 120.374L162.463 119.911C163.086 119.659 163.714 119.414 164.345 119.177L164.52 119.646C165.145 119.411 165.774 119.184 166.406 118.964L166.242 118.492C166.878 118.272 167.517 118.059 168.159 117.853L168.311 118.33C168.947 118.127 169.586 117.931 170.228 117.744L170.088 117.264C170.734 117.075 171.382 116.894 172.034 116.721L172.163 117.204C172.807 117.033 173.455 116.87 174.106 116.715L173.99 116.228C174.644 116.072 175.301 115.924 175.961 115.783L176.065 116.272C176.718 116.134 177.373 116.003 178.031 115.88L177.939 115.389C178.6 115.265 179.264 115.15 179.93 115.042L180.009 115.536C180.668 115.43 181.329 115.332 181.992 115.242L181.925 114.746C182.591 114.656 183.259 114.573 183.93 114.499L183.985 114.996C184.648 114.923 185.313 114.857 185.98 114.8L185.938 114.302C186.607 114.244 187.278 114.195 187.952 114.154L187.983 114.653C188.648 114.612 189.316 114.58 189.986 114.555L189.967 114.055C190.638 114.031 191.311 114.014 191.986 114.006L191.992 114.506C192.328 114.502 192.664 114.5 193 114.5C193.336 114.5 193.672 114.502 194.008 114.506L194.014 114.006C194.689 114.014 195.362 114.031 196.033 114.055L196.014 114.555C196.684 114.58 197.352 114.612 198.017 114.653L198.048 114.154C198.722 114.195 199.393 114.244 200.062 114.302L200.02 114.8C200.687 114.857 201.352 114.923 202.015 114.996L202.07 114.499C202.741 114.573 203.409 114.656 204.075 114.746L204.008 115.242C204.671 115.332 205.332 115.43 205.991 115.536L206.07 115.042C206.736 115.15 207.4 115.265 208.061 115.389L207.969 115.88C208.627 116.003 209.282 116.134 209.935 116.272L210.039 115.783C210.699 115.924 211.356 116.072 212.01 116.228L211.894 116.715C212.545 116.87 213.193 117.033 213.837 117.204L213.966 116.721C214.618 116.894 215.266 117.075 215.912 117.264L215.772 117.744C216.414 117.931 217.053 118.127 217.689 118.33L217.841 117.853C218.483 118.059 219.122 118.272 219.758 118.492L219.594 118.964C220.226 119.184 220.855 119.411 221.48 119.646L221.655 119.177C222.286 119.414 222.914 119.659 223.537 119.911L223.35 120.374C223.971 120.625 224.587 120.883 225.2 121.148L225.399 120.69C226.017 120.958 226.632 121.233 227.242 121.515L227.032 121.969C227.639 122.25 228.242 122.539 228.841 122.834L229.063 122.386C229.667 122.684 230.267 122.989 230.863 123.302L230.63 123.745C231.223 124.056 231.811 124.374 232.395 124.699L232.638 124.262C233.227 124.589 233.811 124.924 234.39 125.266L234.136 125.696C234.713 126.036 235.285 126.383 235.852 126.736L236.116 126.312C236.688 126.668 237.255 127.031 237.817 127.401L237.542 127.818C238.101 128.186 238.655 128.561 239.204 128.942L239.489 128.531C240.043 128.915 240.591 129.305 241.134 129.702L240.839 130.106C241.379 130.5 241.914 130.901 242.445 131.309L242.749 130.913C243.283 131.323 243.811 131.74 244.335 132.163L244.02 132.552C244.54 132.972 245.055 133.399 245.565 133.832L245.889 133.452C246.402 133.887 246.909 134.33 247.411 134.778L247.078 135.151C247.577 135.596 248.07 136.048 248.558 136.505L248.9 136.141C249.391 136.601 249.876 137.067 250.356 137.54L250.005 137.896C250.482 138.365 250.952 138.84 251.417 139.321L251.777 138.974C252.245 139.457 252.707 139.947 253.163 140.442L252.795 140.781C253.248 141.273 253.695 141.77 254.136 142.273L254.512 141.943C254.956 142.449 255.393 142.961 255.825 143.478L255.441 143.798C255.869 144.311 256.291 144.83 256.707 145.354L257.099 145.043C257.517 145.57 257.93 146.102 258.335 146.639L257.936 146.941C258.339 147.474 258.736 148.013 259.126 148.557L259.532 148.265C259.924 148.812 260.31 149.363 260.689 149.92L260.276 150.201C260.652 150.754 261.022 151.311 261.385 151.873L261.805 151.602C262.17 152.167 262.528 152.737 262.88 153.311L262.453 153.572C262.802 154.142 263.144 154.717 263.479 155.296L263.912 155.046C264.249 155.628 264.579 156.215 264.902 156.806L264.464 157.046C264.784 157.632 265.097 158.223 265.404 158.817L265.848 158.588C266.156 159.186 266.457 159.789 266.751 160.395L266.301 160.613C266.593 161.214 266.877 161.819 267.154 162.429L267.609 162.222C267.887 162.834 268.158 163.45 268.422 164.071L267.962 164.267C268.223 164.881 268.477 165.499 268.724 166.121L269.189 165.937C269.437 166.562 269.678 167.191 269.911 167.824L269.442 167.997C269.672 168.623 269.896 169.253 270.112 169.886L270.585 169.725C270.802 170.362 271.011 171.002 271.213 171.646L270.736 171.795C270.936 172.432 271.128 173.072 271.313 173.715L271.793 173.577C271.979 174.224 272.157 174.873 272.327 175.526L271.843 175.652C272.011 176.298 272.171 176.946 272.324 177.598L272.811 177.484C272.965 178.139 273.11 178.796 273.248 179.457L272.759 179.559C272.895 180.212 273.024 180.868 273.144 181.526L273.636 181.436C273.757 182.097 273.871 182.761 273.976 183.428L273.483 183.506C273.587 184.165 273.683 184.826 273.772 185.49L274.267 185.423C274.356 186.09 274.437 186.758 274.51 187.43L274.013 187.484C274.085 188.146 274.149 188.812 274.205 189.479L274.704 189.437C274.76 190.107 274.809 190.778 274.849 191.452L274.35 191.482C274.39 192.148 274.422 192.815 274.446 193.485L274.946 193.467Z" stroke="white" stroke-dasharray="2 2"/>
<ellipse cx="309.142" cy="191.998" rx="63.8581" ry="63.7168" fill="#009F9C"/>
<path d="M284.181 184.481H281.381V198.281H289.981V195.921H284.181V184.481ZM291.459 184.481V198.281H300.059V195.921H294.259V192.321H299.459V189.961H294.259V186.861H300.059V184.481H291.459ZM303.566 198.281L304.406 195.661H309.026L309.866 198.281H312.846L308.046 184.481H305.366L300.566 198.281H303.566ZM306.706 188.441L308.266 193.301H305.146L306.706 188.441ZM324.755 198.281L321.895 192.401C323.395 191.781 324.255 190.561 324.255 188.701C324.255 185.901 322.275 184.481 319.095 184.481H314.155V198.281H316.955V192.861H319.195L321.675 198.281H324.755ZM316.955 190.501V186.861H318.835C320.495 186.861 321.455 187.261 321.455 188.701C321.455 190.141 320.495 190.501 318.835 190.501H316.955ZM334.218 184.481V193.141L328.818 184.481H326.498V198.281H329.158V189.741L334.538 198.281H336.878V184.481H334.218Z" fill="white"/>
<ellipse cx="76.8581" cy="191.998" rx="63.8581" ry="63.7168" fill="#009F9C"/>
<path d="M61.604 184.481H58.804V198.281H67.404V195.921H61.604V184.481ZM71.8822 184.481H69.0822V198.281H71.8822V184.481ZM73.5001 184.481L78.3201 198.281H80.8601L85.6601 184.481H82.6001L79.5801 193.761L76.5601 184.481H73.5001ZM87.0853 184.481V198.281H95.6853V195.921H89.8853V192.321H95.0853V189.961H89.8853V186.861H95.6853V184.481H87.0853Z" fill="white"/>
<ellipse cx="193.399" cy="75.7168" rx="63.8581" ry="63.7168" fill="#009F9C"/>
<path d="M155.177 82C158.297 82 160.477 80.38 160.477 76V74.2C160.477 69.8 158.297 68.2 155.177 68.2H150.277V82H155.177ZM155.177 79.64H153.077V70.58H155.177C157.037 70.58 157.677 71.82 157.677 74.2V76C157.677 78.38 157.037 79.64 155.177 79.64ZM165.777 68.2H162.977V82H165.777V68.2ZM177.975 70.28C176.995 68.76 175.335 68.02 173.135 68.02C169.855 68.02 168.415 69.72 168.415 71.9C168.415 74.18 169.775 75.48 172.495 76.2C174.735 76.78 175.315 77.32 175.315 78.28C175.315 79.12 174.775 79.82 173.175 79.82C171.755 79.82 170.915 79.36 170.175 78.44L168.035 79.92C169.255 81.52 170.935 82.18 173.355 82.18C176.595 82.18 178.115 80.42 178.115 78.16C178.115 75.72 176.815 74.64 173.935 73.92C172.095 73.46 171.215 72.98 171.215 71.9C171.215 70.96 171.895 70.38 173.155 70.38C174.555 70.38 175.275 70.84 175.875 71.78L177.975 70.28ZM190.119 72.48C189.659 69.46 187.799 68.02 185.059 68.02C181.959 68.02 179.779 69.86 179.779 74.12V76.08C179.779 80.3 181.959 82.18 185.059 82.18C187.899 82.18 189.639 80.82 190.099 77.72H187.439C187.139 79.12 186.459 79.82 185.059 79.82C183.439 79.82 182.579 78.64 182.579 76.08V74.12C182.579 71.48 183.439 70.38 185.059 70.38C186.419 70.38 187.179 71.18 187.439 72.48H190.119ZM202.097 76.08V74.12C202.097 69.86 199.917 68.02 196.797 68.02C193.697 68.02 191.517 69.86 191.517 74.12V76.08C191.517 80.3 193.697 82.18 196.797 82.18C199.917 82.18 202.097 80.3 202.097 76.08ZM194.317 74.12C194.317 71.48 195.177 70.38 196.797 70.38C198.417 70.38 199.297 71.48 199.297 74.12V76.08C199.297 78.72 198.417 79.82 196.797 79.82C195.177 79.82 194.317 78.72 194.317 76.08V74.12ZM202.766 68.2L207.586 82H210.126L214.926 68.2H211.866L208.846 77.48L205.826 68.2H202.766ZM216.351 68.2V82H224.951V79.64H219.151V76.04H224.351V73.68H219.151V70.58H224.951V68.2H216.351ZM237.498 82L234.638 76.12C236.138 75.5 236.998 74.28 236.998 72.42C236.998 69.62 235.018 68.2 231.838 68.2H226.898V82H229.698V76.58H231.938L234.418 82H237.498ZM229.698 74.22V70.58H231.578C233.238 70.58 234.198 70.98 234.198 72.42C234.198 73.86 233.238 74.22 231.578 74.22H229.698Z" fill="white"/>
<ellipse cx="193.399" cy="308.283" rx="63.8581" ry="63.7168" fill="#009F9C"/>
<path d="M175.959 309.706C179.159 309.706 181.119 308.106 181.119 305.186C181.119 302.226 179.139 300.766 175.959 300.766H171.019V314.566H173.819V309.706H175.959ZM173.819 307.346V303.146H175.559C177.499 303.146 178.319 303.866 178.319 305.186C178.319 306.666 177.499 307.346 175.559 307.346H173.819ZM185.616 300.766H182.816V314.566H191.416V312.206H185.616V300.766ZM194.786 314.566L195.626 311.946H200.246L201.086 314.566H204.066L199.266 300.766H196.586L191.786 314.566H194.786ZM197.926 304.726L199.486 309.586H196.366L197.926 304.726ZM213.094 300.766V309.426L207.694 300.766H205.374V314.566H208.034V306.026L213.414 314.566H215.754V300.766H213.094Z" fill="white"/>
<path d="M269.941 304.482C269.967 305.15 269.985 305.819 269.993 306.491L269.493 306.497C269.498 306.831 269.5 307.165 269.5 307.5C269.5 307.835 269.498 308.169 269.493 308.503L269.993 308.509C269.985 309.181 269.967 309.85 269.941 310.518L269.442 310.498C269.416 311.165 269.381 311.83 269.338 312.492L269.837 312.525C269.793 313.194 269.74 313.862 269.679 314.527L269.182 314.481C269.121 315.146 269.051 315.808 268.973 316.468L269.47 316.526C269.391 317.193 269.303 317.856 269.207 318.517L268.713 318.445C268.617 319.106 268.512 319.763 268.399 320.418L268.892 320.503C268.778 321.164 268.656 321.822 268.525 322.477L268.035 322.379C267.904 323.033 267.765 323.684 267.617 324.333L268.105 324.444C267.956 325.097 267.799 325.747 267.633 326.395L267.149 326.271C266.984 326.917 266.81 327.56 266.628 328.2L267.109 328.337C266.926 328.981 266.735 329.622 266.535 330.259L266.058 330.11C265.858 330.747 265.651 331.38 265.435 332.009L265.908 332.171C265.691 332.805 265.465 333.435 265.232 334.062L264.763 333.887C264.531 334.512 264.29 335.133 264.041 335.749L264.505 335.936C264.254 336.558 263.995 337.176 263.729 337.789L263.27 337.59C263.005 338.201 262.731 338.808 262.45 339.411L262.904 339.622C262.62 340.229 262.329 340.833 262.03 341.431L261.583 341.208C261.286 341.804 260.981 342.396 260.668 342.982L261.11 343.217C260.795 343.809 260.472 344.396 260.142 344.979L259.707 344.732C259.379 345.311 259.043 345.886 258.7 346.455L259.128 346.713C258.783 347.288 258.43 347.857 258.069 348.421L257.648 348.152C257.29 348.713 256.924 349.269 256.552 349.82L256.966 350.1C256.591 350.656 256.208 351.206 255.819 351.751L255.412 351.46C255.025 352.001 254.631 352.537 254.23 353.068L254.629 353.369C254.225 353.904 253.814 354.433 253.397 354.957L253.006 354.646C252.591 355.166 252.169 355.681 251.741 356.19L252.124 356.512C251.693 357.025 251.255 357.532 250.811 358.033L250.436 357.701C249.995 358.199 249.547 358.692 249.093 359.178L249.458 359.519C249.001 360.009 248.538 360.492 248.068 360.97L247.711 360.619C247.245 361.094 246.772 361.562 246.293 362.024L246.64 362.384C246.158 362.849 245.67 363.308 245.176 363.76L244.838 363.392C244.348 363.841 243.851 364.284 243.349 364.721L243.677 365.098C243.171 365.537 242.66 365.97 242.143 366.397L241.825 366.011C241.311 366.434 240.793 366.851 240.268 367.261L240.576 367.654C240.048 368.067 239.515 368.473 238.977 368.872L238.679 368.47C238.145 368.866 237.605 369.255 237.06 369.637L237.347 370.046C236.799 370.431 236.245 370.808 235.686 371.179L235.41 370.762C234.856 371.129 234.297 371.49 233.732 371.843L233.998 372.267C233.43 372.622 232.858 372.97 232.281 373.311L232.026 372.88C231.454 373.219 230.876 373.549 230.294 373.873L230.537 374.31C229.952 374.635 229.362 374.953 228.768 375.263L228.537 374.82C227.947 375.128 227.353 375.428 226.755 375.721L226.975 376.17C226.374 376.464 225.768 376.75 225.159 377.029L224.951 376.574C224.346 376.851 223.737 377.12 223.124 377.381L223.32 377.841C222.704 378.103 222.085 378.357 221.462 378.604L221.278 378.139C220.659 378.384 220.037 378.62 219.41 378.849L219.582 379.319C218.954 379.548 218.323 379.77 217.688 379.983L217.529 379.509C216.898 379.721 216.264 379.925 215.626 380.121L215.773 380.599C215.134 380.795 214.492 380.983 213.847 381.163L213.712 380.682C213.072 380.86 212.428 381.031 211.781 381.193L211.902 381.678C211.254 381.84 210.603 381.995 209.949 382.141L209.84 381.653C209.191 381.798 208.539 381.934 207.885 382.062L207.981 382.553C207.325 382.681 206.667 382.802 206.005 382.913L205.922 382.42C205.267 382.531 204.609 382.634 203.948 382.728L204.019 383.223C203.358 383.317 202.694 383.403 202.027 383.48L201.969 382.983C201.31 383.06 200.647 383.128 199.983 383.188L200.028 383.686C199.362 383.745 198.695 383.797 198.025 383.84L197.993 383.341C197.33 383.383 196.665 383.417 195.999 383.443L196.018 383.942C195.35 383.968 194.681 383.985 194.009 383.994L194.003 383.494C193.669 383.498 193.335 383.5 193 383.5C192.665 383.5 192.331 383.498 191.997 383.494L191.991 383.994C191.319 383.985 190.65 383.968 189.982 383.942L190.002 383.443C189.335 383.417 188.67 383.383 188.007 383.341L187.976 383.84C187.305 383.797 186.638 383.745 185.973 383.686L186.017 383.188C185.353 383.128 184.69 383.06 184.031 382.983L183.973 383.48C183.307 383.403 182.643 383.317 181.981 383.223L182.052 382.728C181.391 382.634 180.733 382.531 180.078 382.42L179.995 382.913C179.333 382.802 178.675 382.682 178.019 382.553L178.116 382.062C177.461 381.934 176.809 381.798 176.16 381.653L176.051 382.141C175.397 381.995 174.746 381.84 174.098 381.678L174.219 381.193C173.572 381.031 172.928 380.86 172.288 380.682L172.153 381.163C171.508 380.983 170.866 380.795 170.227 380.599L170.374 380.121C169.736 379.925 169.102 379.721 168.472 379.509L168.312 379.983C167.677 379.77 167.046 379.548 166.418 379.319L166.59 378.849C165.963 378.621 165.341 378.384 164.722 378.139L164.538 378.604C163.915 378.358 163.296 378.103 162.681 377.841L162.876 377.381C162.263 377.12 161.654 376.851 161.049 376.574L160.841 377.029C160.232 376.75 159.626 376.464 159.026 376.17L159.245 375.721C158.647 375.428 158.053 375.128 157.463 374.82L157.232 375.263C156.638 374.953 156.048 374.635 155.463 374.31L155.706 373.873C155.124 373.549 154.546 373.219 153.974 372.88L153.72 373.311C153.142 372.97 152.57 372.622 152.002 372.267L152.268 371.843C151.704 371.49 151.144 371.129 150.59 370.762L150.314 371.179C149.755 370.808 149.201 370.431 148.653 370.046L148.94 369.637C148.395 369.255 147.855 368.866 147.321 368.47L147.023 368.872C146.485 368.473 145.952 368.067 145.424 367.654L145.732 367.261C145.207 366.851 144.689 366.434 144.175 366.011L143.857 366.397C143.34 365.97 142.829 365.537 142.323 365.098L142.651 364.721C142.149 364.284 141.652 363.841 141.162 363.392L140.824 363.76C140.33 363.308 139.842 362.849 139.36 362.384L139.707 362.024C139.228 361.562 138.755 361.094 138.289 360.619L137.932 360.97C137.462 360.493 136.999 360.009 136.542 359.519L136.907 359.178C136.453 358.692 136.005 358.199 135.564 357.701L135.189 358.033C134.745 357.532 134.307 357.025 133.876 356.512L134.259 356.19C133.831 355.681 133.409 355.166 132.994 354.646L132.603 354.957C132.186 354.433 131.775 353.904 131.371 353.369L131.77 353.068C131.369 352.537 130.975 352.001 130.588 351.46L130.181 351.751C129.792 351.206 129.409 350.656 129.034 350.1L129.448 349.82C129.076 349.269 128.71 348.713 128.352 348.152L127.931 348.421C127.57 347.857 127.217 347.288 126.872 346.713L127.3 346.455C126.957 345.886 126.621 345.311 126.293 344.732L125.858 344.979C125.528 344.396 125.205 343.809 124.89 343.217L125.332 342.982C125.019 342.396 124.714 341.804 124.417 341.208L123.97 341.431C123.671 340.833 123.38 340.229 123.096 339.622L123.55 339.411C123.269 338.808 122.995 338.201 122.73 337.59L122.271 337.789C122.005 337.176 121.746 336.558 121.495 335.936L121.959 335.749C121.71 335.133 121.469 334.512 121.237 333.887L120.768 334.062C120.535 333.435 120.309 332.805 120.092 332.171L120.565 332.009C120.349 331.38 120.142 330.747 119.942 330.11L119.465 330.259C119.265 329.622 119.074 328.981 118.891 328.337L119.372 328.2C119.19 327.56 119.016 326.917 118.851 326.271L118.367 326.395C118.201 325.747 118.044 325.097 117.895 324.444L118.383 324.333C118.235 323.684 118.096 323.033 117.965 322.379L117.475 322.477C117.344 321.822 117.222 321.164 117.108 320.503L117.601 320.418C117.488 319.763 117.383 319.106 117.287 318.445L116.793 318.517C116.697 317.856 116.609 317.193 116.53 316.526L117.027 316.467C116.949 315.808 116.879 315.146 116.818 314.481L116.321 314.527C116.26 313.862 116.207 313.194 116.163 312.524L116.662 312.492C116.619 311.83 116.584 311.165 116.558 310.498L116.059 310.518C116.033 309.85 116.015 309.181 116.007 308.509L116.507 308.503C116.502 308.169 116.5 307.835 116.5 307.5C116.5 307.165 116.502 306.831 116.507 306.497L116.007 306.491C116.015 305.819 116.033 305.15 116.059 304.482L116.558 304.502C116.584 303.835 116.619 303.17 116.662 302.508L116.163 302.475C116.207 301.806 116.26 301.138 116.321 300.473L116.818 300.519C116.879 299.854 116.949 299.192 117.027 298.532L116.53 298.474C116.609 297.807 116.697 297.144 116.793 296.483L117.287 296.555C117.383 295.894 117.488 295.237 117.601 294.582L117.108 294.497C117.222 293.836 117.344 293.178 117.475 292.523L117.965 292.621C118.096 291.967 118.235 291.316 118.383 290.667L117.895 290.556C118.044 289.903 118.201 289.253 118.367 288.605L118.851 288.729C119.016 288.083 119.19 287.44 119.372 286.8L118.891 286.663C119.074 286.019 119.265 285.378 119.465 284.741L119.942 284.89C120.142 284.253 120.349 283.62 120.565 282.991L120.092 282.829C120.309 282.195 120.535 281.565 120.768 280.938L121.237 281.113C121.469 280.488 121.71 279.867 121.959 279.251L121.495 279.064C121.746 278.442 122.005 277.824 122.271 277.211L122.73 277.41C122.995 276.799 123.269 276.192 123.55 275.589L123.096 275.378C123.38 274.771 123.671 274.167 123.97 273.569L124.417 273.792C124.714 273.196 125.019 272.604 125.332 272.018L124.89 271.783C125.205 271.191 125.528 270.604 125.858 270.021L126.293 270.268C126.621 269.689 126.957 269.114 127.3 268.545L126.872 268.287C127.217 267.712 127.571 267.143 127.931 266.579L128.352 266.848C128.71 266.287 129.076 265.731 129.448 265.18L129.034 264.9C129.409 264.344 129.792 263.794 130.181 263.249L130.588 263.54C130.975 262.999 131.369 262.463 131.77 261.932L131.371 261.631C131.775 261.096 132.186 260.567 132.603 260.043L132.994 260.354C133.409 259.834 133.831 259.319 134.259 258.81L133.876 258.488C134.307 257.975 134.745 257.468 135.189 256.967L135.564 257.299C136.005 256.801 136.453 256.308 136.907 255.822L136.542 255.481C136.999 254.991 137.462 254.508 137.932 254.03L138.289 254.381C138.755 253.906 139.228 253.438 139.707 252.976L139.36 252.616C139.842 252.151 140.33 251.692 140.824 251.24L141.162 251.608C141.652 251.159 142.149 250.716 142.651 250.279L142.323 249.902C142.829 249.463 143.34 249.03 143.857 248.603L144.175 248.989C144.689 248.566 145.207 248.149 145.732 247.739L145.424 247.346C145.952 246.933 146.485 246.527 147.023 246.128L147.321 246.53C147.855 246.134 148.395 245.745 148.94 245.363L148.653 244.954C149.201 244.569 149.755 244.192 150.314 243.821L150.59 244.238C151.144 243.871 151.703 243.51 152.268 243.157L152.002 242.733C152.57 242.378 153.142 242.03 153.72 241.689L153.974 242.12C154.546 241.781 155.124 241.451 155.706 241.127L155.463 240.69C156.048 240.365 156.638 240.047 157.232 239.737L157.463 240.18C158.053 239.872 158.647 239.572 159.245 239.279L159.025 238.83C159.626 238.536 160.232 238.25 160.841 237.971L161.049 238.426C161.654 238.149 162.263 237.88 162.876 237.619L162.68 237.159C163.296 236.897 163.915 236.643 164.538 236.396L164.722 236.861C165.341 236.616 165.963 236.38 166.59 236.151L166.418 235.681C167.046 235.452 167.677 235.23 168.312 235.017L168.471 235.491C169.102 235.279 169.736 235.075 170.374 234.879L170.227 234.401C170.866 234.205 171.508 234.017 172.153 233.837L172.288 234.318C172.928 234.14 173.572 233.969 174.219 233.807L174.098 233.322C174.746 233.16 175.397 233.005 176.051 232.859L176.16 233.347C176.809 233.202 177.461 233.066 178.115 232.938L178.019 232.447C178.675 232.319 179.333 232.198 179.995 232.087L180.078 232.58C180.733 232.469 181.391 232.366 182.052 232.272L181.981 231.777C182.642 231.683 183.306 231.597 183.973 231.52L184.031 232.017C184.69 231.94 185.353 231.872 186.017 231.812L185.972 231.314C186.638 231.255 187.305 231.203 187.975 231.16L188.007 231.659C188.67 231.617 189.335 231.583 190.001 231.557L189.982 231.058C190.65 231.032 191.319 231.015 191.991 231.006L191.997 231.506C192.331 231.502 192.665 231.5 193 231.5C193.335 231.5 193.669 231.502 194.003 231.506L194.009 231.006C194.681 231.015 195.35 231.032 196.018 231.058L195.998 231.557C196.665 231.583 197.33 231.617 197.993 231.659L198.024 231.16C198.695 231.203 199.362 231.255 200.027 231.314L199.983 231.812C200.647 231.872 201.31 231.94 201.969 232.017L202.027 231.52C202.693 231.597 203.357 231.683 204.019 231.777L203.948 232.272C204.609 232.366 205.267 232.469 205.922 232.58L206.005 232.087C206.667 232.198 207.325 232.318 207.981 232.447L207.884 232.938C208.539 233.066 209.191 233.202 209.84 233.347L209.949 232.859C210.603 233.005 211.254 233.16 211.902 233.322L211.781 233.807C212.428 233.969 213.072 234.14 213.712 234.318L213.847 233.837C214.492 234.017 215.134 234.205 215.773 234.401L215.626 234.879C216.264 235.075 216.898 235.279 217.528 235.491L217.688 235.017C218.323 235.23 218.954 235.452 219.582 235.681L219.41 236.151C220.037 236.379 220.659 236.616 221.278 236.861L221.462 236.396C222.085 236.642 222.704 236.897 223.319 237.159L223.124 237.619C223.737 237.88 224.346 238.149 224.951 238.426L225.159 237.971C225.768 238.25 226.374 238.536 226.974 238.83L226.755 239.279C227.353 239.572 227.947 239.872 228.537 240.18L228.768 239.737C229.362 240.047 229.952 240.365 230.537 240.69L230.294 241.127C230.876 241.451 231.454 241.781 232.026 242.12L232.28 241.689C232.858 242.03 233.43 242.378 233.998 242.733L233.732 243.157C234.296 243.51 234.856 243.871 235.41 244.238L235.686 243.821C236.245 244.192 236.799 244.569 237.347 244.954L237.06 245.363C237.605 245.745 238.145 246.134 238.679 246.53L238.977 246.128C239.515 246.527 240.048 246.933 240.576 247.346L240.268 247.739C240.793 248.149 241.311 248.566 241.825 248.989L242.143 248.603C242.66 249.03 243.171 249.463 243.677 249.902L243.349 250.279C243.851 250.716 244.348 251.159 244.838 251.608L245.176 251.24C245.67 251.692 246.158 252.151 246.64 252.616L246.293 252.976C246.772 253.438 247.245 253.906 247.711 254.381L248.068 254.03C248.538 254.507 249.001 254.991 249.458 255.481L249.093 255.822C249.547 256.308 249.995 256.801 250.436 257.299L250.811 256.967C251.255 257.468 251.693 257.975 252.124 258.488L251.741 258.81C252.169 259.319 252.591 259.834 253.006 260.354L253.397 260.043C253.814 260.567 254.225 261.096 254.629 261.631L254.23 261.932C254.631 262.463 255.025 262.999 255.412 263.54L255.819 263.249C256.208 263.794 256.591 264.344 256.966 264.9L256.552 265.18C256.924 265.731 257.29 266.287 257.648 266.848L258.069 266.579C258.43 267.143 258.783 267.712 259.128 268.287L258.7 268.545C259.043 269.114 259.379 269.689 259.707 270.268L260.142 270.021C260.472 270.604 260.795 271.191 261.11 271.783L260.668 272.018C260.981 272.604 261.286 273.196 261.583 273.792L262.03 273.569C262.329 274.167 262.62 274.771 262.904 275.378L262.45 275.589C262.731 276.192 263.005 276.799 263.27 277.41L263.729 277.211C263.995 277.824 264.254 278.442 264.505 279.064L264.041 279.251C264.29 279.867 264.531 280.488 264.763 281.113L265.232 280.938C265.465 281.565 265.691 282.195 265.908 282.829L265.435 282.991C265.651 283.62 265.858 284.253 266.058 284.89L266.535 284.741C266.735 285.378 266.926 286.019 267.109 286.663L266.628 286.8C266.81 287.44 266.984 288.083 267.149 288.729L267.633 288.605C267.799 289.253 267.956 289.903 268.105 290.556L267.617 290.667C267.765 291.316 267.904 291.967 268.035 292.621L268.525 292.523C268.656 293.178 268.778 293.836 268.892 294.497L268.399 294.582C268.512 295.237 268.617 295.894 268.713 296.555L269.207 296.483C269.303 297.144 269.391 297.807 269.47 298.474L268.973 298.533C269.051 299.192 269.121 299.854 269.182 300.519L269.679 300.473C269.74 301.138 269.793 301.806 269.837 302.476L269.338 302.508C269.381 303.17 269.416 303.835 269.442 304.502L269.941 304.482Z" stroke="white" stroke-dasharray="2 2"/>
<path d="M269.941 73.4824C269.967 74.1498 269.985 74.8193 269.993 75.491L269.493 75.4975C269.498 75.8311 269.5 76.1653 269.5 76.5C269.5 76.8347 269.498 77.1689 269.493 77.5026L269.993 77.5091C269.985 78.1808 269.967 78.8503 269.941 79.5177L269.442 79.4982C269.416 80.165 269.381 80.8297 269.338 81.492L269.837 81.5245C269.793 82.1945 269.74 82.862 269.679 83.5271L269.182 83.4815C269.121 84.146 269.051 84.8081 268.973 85.4675L269.47 85.5263C269.391 86.1926 269.303 86.8563 269.207 87.5172L268.713 87.4454C268.617 88.1058 268.512 88.7634 268.399 89.4181L268.892 89.503C268.778 90.1639 268.656 90.8219 268.525 91.4768L268.035 91.3788C267.904 92.0332 267.765 92.6845 267.617 93.3326L268.105 93.4436C267.956 94.0971 267.799 94.7475 267.633 95.3946L267.149 95.2707C266.984 95.9171 266.81 96.5602 266.628 97.1999L267.109 97.3366C266.926 97.9811 266.735 98.6221 266.535 99.2595L266.058 99.11C265.858 99.7467 265.651 100.38 265.435 101.009L265.908 101.171C265.691 101.805 265.465 102.435 265.232 103.062L264.763 102.887C264.531 103.512 264.29 104.133 264.041 104.749L264.505 104.936C264.254 105.558 263.995 106.176 263.729 106.789L263.27 106.59C263.005 107.201 262.731 107.808 262.45 108.411L262.904 108.622C262.62 109.229 262.329 109.833 262.03 110.431L261.583 110.208C261.286 110.804 260.981 111.396 260.668 111.982L261.11 112.217C260.795 112.809 260.472 113.396 260.142 113.979L259.707 113.732C259.379 114.311 259.043 114.886 258.7 115.455L259.128 115.713C258.783 116.288 258.43 116.857 258.069 117.421L257.648 117.152C257.29 117.713 256.924 118.269 256.552 118.82L256.966 119.1C256.591 119.656 256.208 120.206 255.819 120.751L255.412 120.46C255.025 121.001 254.631 121.537 254.23 122.068L254.629 122.369C254.225 122.904 253.814 123.433 253.397 123.957L253.006 123.646C252.591 124.166 252.169 124.681 251.741 125.19L252.124 125.512C251.693 126.025 251.255 126.532 250.811 127.033L250.436 126.701C249.995 127.199 249.547 127.692 249.093 128.178L249.458 128.519C249.001 129.009 248.538 129.492 248.068 129.97L247.711 129.619C247.245 130.094 246.772 130.562 246.293 131.024L246.64 131.384C246.158 131.849 245.67 132.308 245.176 132.76L244.838 132.392C244.348 132.841 243.851 133.284 243.349 133.721L243.677 134.098C243.171 134.537 242.66 134.97 242.143 135.397L241.825 135.011C241.311 135.434 240.793 135.851 240.268 136.261L240.576 136.654C240.048 137.067 239.515 137.473 238.977 137.872L238.679 137.47C238.145 137.866 237.605 138.255 237.06 138.637L237.347 139.046C236.799 139.431 236.245 139.808 235.686 140.179L235.41 139.762C234.856 140.129 234.297 140.49 233.732 140.843L233.998 141.267C233.43 141.622 232.858 141.97 232.281 142.311L232.026 141.88C231.454 142.219 230.876 142.549 230.294 142.873L230.537 143.31C229.952 143.635 229.362 143.953 228.768 144.263L228.537 143.82C227.947 144.128 227.353 144.428 226.755 144.721L226.975 145.17C226.374 145.464 225.768 145.75 225.159 146.029L224.951 145.574C224.346 145.851 223.737 146.12 223.124 146.381L223.32 146.841C222.704 147.103 222.085 147.357 221.462 147.604L221.278 147.139C220.659 147.384 220.037 147.62 219.41 147.849L219.582 148.319C218.954 148.548 218.323 148.77 217.688 148.983L217.529 148.509C216.898 148.721 216.264 148.925 215.626 149.121L215.773 149.599C215.134 149.795 214.492 149.983 213.847 150.163L213.712 149.682C213.072 149.86 212.428 150.031 211.781 150.193L211.902 150.678C211.254 150.84 210.603 150.995 209.949 151.141L209.84 150.653C209.191 150.798 208.539 150.934 207.885 151.062L207.981 151.553C207.325 151.681 206.667 151.802 206.005 151.913L205.922 151.42C205.267 151.531 204.609 151.634 203.948 151.728L204.019 152.223C203.358 152.317 202.694 152.403 202.027 152.48L201.969 151.983C201.31 152.06 200.647 152.128 199.983 152.188L200.028 152.686C199.362 152.745 198.695 152.797 198.025 152.84L197.993 152.341C197.33 152.383 196.665 152.417 195.999 152.443L196.018 152.942C195.35 152.968 194.681 152.985 194.009 152.994L194.003 152.494C193.669 152.498 193.335 152.5 193 152.5C192.665 152.5 192.331 152.498 191.997 152.494L191.991 152.994C191.319 152.985 190.65 152.968 189.982 152.942L190.002 152.443C189.335 152.417 188.67 152.383 188.007 152.341L187.976 152.84C187.305 152.797 186.638 152.745 185.973 152.686L186.017 152.188C185.353 152.128 184.69 152.06 184.031 151.983L183.973 152.48C183.307 152.403 182.643 152.317 181.981 152.223L182.052 151.728C181.391 151.634 180.733 151.531 180.078 151.42L179.995 151.913C179.333 151.802 178.675 151.682 178.019 151.553L178.116 151.062C177.461 150.934 176.809 150.798 176.16 150.653L176.051 151.141C175.397 150.995 174.746 150.84 174.098 150.678L174.219 150.193C173.572 150.031 172.928 149.86 172.288 149.682L172.153 150.163C171.508 149.983 170.866 149.795 170.227 149.599L170.374 149.121C169.736 148.925 169.102 148.721 168.472 148.509L168.312 148.983C167.677 148.77 167.046 148.548 166.418 148.319L166.59 147.849C165.963 147.621 165.341 147.384 164.722 147.139L164.538 147.604C163.915 147.358 163.296 147.103 162.681 146.841L162.876 146.381C162.263 146.12 161.654 145.851 161.049 145.574L160.841 146.029C160.232 145.75 159.626 145.464 159.026 145.17L159.245 144.721C158.647 144.428 158.053 144.128 157.463 143.82L157.232 144.263C156.638 143.953 156.048 143.635 155.463 143.31L155.706 142.873C155.124 142.549 154.546 142.219 153.974 141.88L153.72 142.311C153.142 141.97 152.57 141.622 152.002 141.267L152.268 140.843C151.704 140.49 151.144 140.129 150.59 139.762L150.314 140.179C149.755 139.808 149.201 139.431 148.653 139.046L148.94 138.637C148.395 138.255 147.855 137.866 147.321 137.47L147.023 137.872C146.485 137.473 145.952 137.067 145.424 136.654L145.732 136.261C145.207 135.851 144.689 135.434 144.175 135.011L143.857 135.397C143.34 134.97 142.829 134.537 142.323 134.098L142.651 133.721C142.149 133.284 141.652 132.841 141.162 132.392L140.824 132.76C140.33 132.308 139.842 131.849 139.36 131.384L139.707 131.024C139.228 130.562 138.755 130.094 138.289 129.619L137.932 129.97C137.462 129.493 136.999 129.009 136.542 128.519L136.907 128.178C136.453 127.692 136.005 127.199 135.564 126.701L135.189 127.033C134.745 126.532 134.307 126.025 133.876 125.512L134.259 125.19C133.831 124.681 133.409 124.166 132.994 123.646L132.603 123.957C132.186 123.433 131.775 122.904 131.371 122.369L131.77 122.068C131.369 121.537 130.975 121.001 130.588 120.46L130.181 120.751C129.792 120.206 129.409 119.656 129.034 119.1L129.448 118.82C129.076 118.269 128.71 117.713 128.352 117.152L127.931 117.421C127.57 116.857 127.217 116.288 126.872 115.713L127.3 115.455C126.957 114.886 126.621 114.311 126.293 113.732L125.858 113.979C125.528 113.396 125.205 112.809 124.89 112.217L125.332 111.982C125.019 111.396 124.714 110.804 124.417 110.208L123.97 110.431C123.671 109.833 123.38 109.229 123.096 108.622L123.55 108.411C123.269 107.808 122.995 107.201 122.73 106.59L122.271 106.789C122.005 106.176 121.746 105.558 121.495 104.936L121.959 104.749C121.71 104.133 121.469 103.512 121.237 102.887L120.768 103.062C120.535 102.435 120.309 101.805 120.092 101.171L120.565 101.009C120.349 100.38 120.142 99.7466 119.942 99.11L119.465 99.2594C119.265 98.622 119.074 97.981 118.891 97.3366L119.372 97.1999C119.19 96.5602 119.016 95.9171 118.851 95.2706L118.367 95.3945C118.201 94.7474 118.044 94.0971 117.895 93.4435L118.383 93.3326C118.235 92.6844 118.096 92.0331 117.965 91.3788L117.475 91.4767C117.344 90.8218 117.222 90.1638 117.108 89.503L117.601 89.418C117.488 88.7633 117.383 88.1057 117.287 87.4453L116.793 87.5172C116.697 86.8562 116.609 86.1925 116.53 85.5262L117.027 85.4674C116.949 84.808 116.879 84.1459 116.818 83.4814L116.321 83.527C116.26 82.8619 116.207 82.1944 116.163 81.5244L116.662 81.4919C116.619 80.8296 116.584 80.1649 116.558 79.4981L116.059 79.5176C116.033 78.8502 116.015 78.1807 116.007 77.509L116.507 77.5025C116.502 77.1689 116.5 76.8347 116.5 76.5C116.5 76.1653 116.502 75.8311 116.507 75.4974L116.007 75.4909C116.015 74.8192 116.033 74.1497 116.059 73.4823L116.558 73.5018C116.584 72.835 116.619 72.1703 116.662 71.508L116.163 71.4755C116.207 70.8055 116.26 70.138 116.321 69.4729L116.818 69.5185C116.879 68.854 116.949 68.1919 117.027 67.5325L116.53 67.4737C116.609 66.8074 116.697 66.1437 116.793 65.4828L117.287 65.5546C117.383 64.8942 117.488 64.2366 117.601 63.5819L117.108 63.497C117.222 62.8361 117.344 62.1782 117.475 61.5232L117.965 61.6212C118.096 60.9668 118.235 60.3155 118.383 59.6674L117.895 59.5564C118.044 58.9029 118.201 58.2525 118.367 57.6054L118.851 57.7293C119.016 57.0829 119.19 56.4398 119.372 55.8001L118.891 55.6634C119.074 55.0189 119.265 54.3779 119.465 53.7405L119.942 53.89C120.142 53.2533 120.349 52.6203 120.565 51.9909L120.092 51.8288C120.309 51.1949 120.535 50.5647 120.768 49.9383L121.237 50.1129C121.469 49.4882 121.71 48.8674 121.959 48.2506L121.495 48.0636C121.746 47.442 122.005 46.8244 122.271 46.2109L122.73 46.4102C122.995 45.7991 123.269 45.1921 123.55 44.5894L123.096 44.3781C123.38 43.7706 123.671 43.1674 123.97 42.5687L124.417 42.7919C124.714 42.196 125.019 41.6045 125.332 41.0175L124.89 40.7826C125.205 40.1909 125.528 39.6037 125.858 39.0214L126.293 39.2679C126.621 38.6887 126.957 38.1142 127.3 37.5445L126.872 37.2866C127.217 36.7124 127.571 36.143 127.931 35.5786L128.352 35.8477C128.71 35.2867 129.076 34.7307 129.448 34.1797L129.034 33.8997C129.409 33.3444 129.792 32.7943 130.181 32.2495L130.588 32.5403C130.975 31.9989 131.369 31.4627 131.77 30.932L131.371 30.6306C131.775 30.0959 132.186 29.5666 132.603 29.0428L132.994 29.3545C133.409 28.8341 133.831 28.3191 134.259 27.8099L133.876 27.4881C134.307 26.9753 134.745 26.4682 135.189 25.967L135.564 26.2986C136.005 25.8005 136.453 25.3083 136.907 24.8219L136.542 24.4807C136.999 23.9911 137.462 23.5075 137.932 23.03L138.289 23.3807C138.755 22.9063 139.228 22.438 139.707 21.9759L139.36 21.6161C139.842 21.151 140.33 20.6922 140.824 20.2397L141.162 20.6084C141.652 20.159 142.149 19.716 142.651 19.2794L142.323 18.902C142.829 18.4626 143.34 18.0297 143.857 17.6033L144.175 17.9891C144.689 17.566 145.207 17.1494 145.732 16.7395L145.424 16.3456C145.952 15.9331 146.485 15.5273 147.023 15.1283L147.321 15.5301C147.855 15.1343 148.395 14.7453 148.94 14.3632L148.653 13.9538C149.201 13.5694 149.755 13.1919 150.314 12.8214L150.59 13.2382C151.144 12.8707 151.703 12.5103 152.268 12.157L152.002 11.7332C152.57 11.3779 153.142 11.0298 153.72 10.689L153.974 11.1196C154.546 10.7815 155.124 10.4506 155.706 10.1271L155.463 9.69008C156.048 9.36498 156.638 9.04725 157.232 8.737L157.463 9.18023C158.053 8.87246 158.647 8.57211 159.245 8.2793L159.025 7.83017C159.626 7.53618 160.232 7.24975 160.841 6.971L161.049 7.42571C161.654 7.1491 162.263 6.88011 162.876 6.61885L162.68 6.15886C163.296 5.89682 163.915 5.64251 164.538 5.39605L164.722 5.86102C165.341 5.61637 165.963 5.37951 166.59 5.15056L166.418 4.68094C167.046 4.45159 167.677 4.23013 168.312 4.01667L168.471 4.49062C169.102 4.2787 169.736 4.07473 170.374 3.87882L170.227 3.40085C170.866 3.20473 171.508 3.01664 172.153 2.8367L172.288 3.31834C172.928 3.13978 173.572 2.96929 174.219 2.80701L174.098 2.32202C174.746 2.15956 175.397 2.00527 176.051 1.85925L176.16 2.34724C176.809 2.20247 177.461 2.06588 178.115 1.9376L178.019 1.44692C178.675 1.31851 179.333 1.19836 179.995 1.08659L180.078 1.5796C180.733 1.46889 181.391 1.36645 182.052 1.2724L181.981 0.777395C182.642 0.683252 183.306 0.597458 183.973 0.520123L184.031 1.01679C184.69 0.940265 185.353 0.872075 186.017 0.812329L185.972 0.314337C186.638 0.254537 187.305 0.203145 187.975 0.160266L188.007 0.659246C188.67 0.616855 189.335 0.58284 190.001 0.557305L189.982 0.0576713C190.65 0.0321179 191.319 0.015004 191.991 0.00643399L191.997 0.506393C192.331 0.502135 192.665 0.5 193 0.5C193.335 0.5 193.669 0.502135 194.003 0.506392L194.009 0.00643263C194.681 0.0150017 195.35 0.0321148 196.018 0.0576675L195.998 0.557302C196.665 0.582835 197.33 0.61685 197.993 0.659239L198.024 0.16026C198.695 0.203138 199.362 0.25453 200.027 0.314329L199.983 0.812321C200.647 0.872065 201.31 0.940255 201.969 1.01678L202.027 0.520112C202.693 0.597446 203.357 0.68324 204.019 0.777382L203.948 1.27239C204.609 1.36644 205.267 1.46888 205.922 1.57958L206.005 1.08658C206.667 1.19834 207.325 1.31849 207.981 1.44691L207.884 1.93758C208.539 2.06587 209.191 2.20245 209.84 2.34722L209.949 1.85923C210.603 2.00525 211.254 2.15955 211.902 2.322L211.781 2.80699C212.428 2.96928 213.072 3.13976 213.712 3.31832L213.847 2.83668C214.492 3.01662 215.134 3.20471 215.773 3.40083L215.626 3.8788C216.264 4.07471 216.898 4.27868 217.528 4.4906L217.688 4.01665C218.323 4.2301 218.954 4.45157 219.582 4.68092L219.41 5.15054C220.037 5.37949 220.659 5.61635 221.278 5.86099L221.462 5.39603C222.085 5.64249 222.704 5.89679 223.319 6.15883L223.124 6.61883C223.737 6.88009 224.346 7.14908 224.951 7.42568L225.159 6.97097C225.768 7.24973 226.374 7.53616 226.974 7.83015L226.755 8.27927C227.353 8.57208 227.947 8.87244 228.537 9.18021L228.768 8.73698C229.362 9.04723 229.952 9.36496 230.537 9.69006L230.294 10.1271C230.876 10.4506 231.454 10.7815 232.026 11.1195L232.28 10.689C232.858 11.0298 233.43 11.3779 233.998 11.7332L233.732 12.157C234.296 12.5103 234.856 12.8707 235.41 13.2382L235.686 12.8214C236.245 13.1919 236.799 13.5693 237.347 13.9538L237.06 14.3632C237.605 14.7453 238.145 15.1343 238.679 15.5301L238.977 15.1283C239.515 15.5273 240.048 15.9331 240.576 16.3456L240.268 16.7395C240.793 17.1494 241.311 17.566 241.825 17.9891L242.143 17.6033C242.66 18.0297 243.171 18.4626 243.677 18.902L243.349 19.2794C243.851 19.716 244.348 20.159 244.838 20.6084L245.176 20.2396C245.67 20.6922 246.158 21.151 246.64 21.6161L246.293 21.9759C246.772 22.438 247.245 22.9063 247.711 23.3807L248.068 23.03C248.538 23.5075 249.001 23.9911 249.458 24.4806L249.093 24.8219C249.547 25.3083 249.995 25.8005 250.436 26.2986L250.811 25.9669C251.255 26.4682 251.693 26.9753 252.124 27.4881L251.741 27.8099C252.169 28.3191 252.591 28.834 253.006 29.3545L253.397 29.0428C253.814 29.5666 254.225 30.0959 254.629 30.6306L254.23 30.932C254.631 31.4627 255.025 31.9989 255.412 32.5403L255.819 32.2495C256.208 32.7943 256.591 33.3444 256.966 33.8997L256.552 34.1798C256.924 34.7307 257.29 35.2867 257.648 35.8477L258.069 35.5786C258.43 36.143 258.783 36.7124 259.128 37.2867L258.7 37.5446C259.043 38.1142 259.379 38.6887 259.707 39.2679L260.142 39.0214C260.472 39.6038 260.795 40.1909 261.11 40.7826L260.668 41.0176C260.981 41.6045 261.286 42.196 261.583 42.7919L262.03 42.5687C262.329 43.1674 262.62 43.7706 262.904 44.3781L262.45 44.5895C262.731 45.1921 263.005 45.7991 263.27 46.4102L263.729 46.211C263.995 46.8244 264.254 47.442 264.505 48.0636L264.041 48.2506C264.29 48.8674 264.531 49.4883 264.763 50.113L265.232 49.9384C265.465 50.5647 265.691 51.1949 265.908 51.8289L265.435 51.991C265.651 52.6203 265.858 53.2534 266.058 53.89L266.535 53.7406C266.735 54.378 266.926 55.019 267.109 55.6634L266.628 55.8001C266.81 56.4398 266.984 57.0829 267.149 57.7294L267.633 57.6055C267.799 58.2526 267.956 58.9029 268.105 59.5565L267.617 59.6674C267.765 60.3156 267.904 60.9669 268.035 61.6212L268.525 61.5233C268.656 62.1782 268.778 62.8362 268.892 63.497L268.399 63.582C268.512 64.2367 268.617 64.8943 268.713 65.5547L269.207 65.4828C269.303 66.1438 269.391 66.8075 269.47 67.4738L268.973 67.5326C269.051 68.192 269.121 68.8541 269.182 69.5186L269.679 69.473C269.74 70.1381 269.793 70.8056 269.837 71.4755L269.338 71.5081C269.381 72.1704 269.416 72.8351 269.442 73.5019L269.941 73.4824Z" stroke="white" stroke-dasharray="2 2"/>
<path d="M385.941 189.482C385.967 190.15 385.985 190.819 385.993 191.491L385.493 191.497C385.498 191.831 385.5 192.165 385.5 192.5C385.5 192.835 385.498 193.169 385.493 193.503L385.993 193.509C385.985 194.181 385.967 194.85 385.941 195.518L385.442 195.498C385.416 196.165 385.381 196.83 385.338 197.492L385.837 197.525C385.793 198.194 385.74 198.862 385.679 199.527L385.182 199.481C385.121 200.146 385.051 200.808 384.973 201.468L385.47 201.526C385.391 202.193 385.303 202.856 385.207 203.517L384.713 203.445C384.617 204.106 384.512 204.763 384.399 205.418L384.892 205.503C384.778 206.164 384.656 206.822 384.525 207.477L384.035 207.379C383.904 208.033 383.765 208.684 383.617 209.333L384.105 209.444C383.956 210.097 383.799 210.747 383.633 211.395L383.149 211.271C382.984 211.917 382.81 212.56 382.628 213.2L383.109 213.337C382.926 213.981 382.735 214.622 382.535 215.259L382.058 215.11C381.858 215.747 381.651 216.38 381.435 217.009L381.908 217.171C381.691 217.805 381.465 218.435 381.232 219.062L380.763 218.887C380.531 219.512 380.29 220.133 380.041 220.749L380.505 220.936C380.254 221.558 379.995 222.176 379.729 222.789L379.27 222.59C379.005 223.201 378.731 223.808 378.45 224.411L378.904 224.622C378.62 225.229 378.329 225.833 378.03 226.431L377.583 226.208C377.286 226.804 376.981 227.396 376.668 227.982L377.11 228.217C376.795 228.809 376.472 229.396 376.142 229.979L375.707 229.732C375.379 230.311 375.043 230.886 374.7 231.455L375.128 231.713C374.783 232.288 374.43 232.857 374.069 233.421L373.648 233.152C373.29 233.713 372.924 234.269 372.552 234.82L372.966 235.1C372.591 235.656 372.208 236.206 371.819 236.751L371.412 236.46C371.025 237.001 370.631 237.537 370.23 238.068L370.629 238.369C370.225 238.904 369.814 239.433 369.397 239.957L369.006 239.646C368.591 240.166 368.169 240.681 367.741 241.19L368.124 241.512C367.693 242.025 367.255 242.532 366.811 243.033L366.436 242.701C365.995 243.199 365.547 243.692 365.093 244.178L365.458 244.519C365.001 245.009 364.538 245.492 364.068 245.97L363.711 245.619C363.245 246.094 362.772 246.562 362.293 247.024L362.64 247.384C362.158 247.849 361.67 248.308 361.176 248.76L360.838 248.392C360.348 248.841 359.851 249.284 359.349 249.721L359.677 250.098C359.171 250.537 358.66 250.97 358.143 251.397L357.825 251.011C357.311 251.434 356.793 251.851 356.268 252.261L356.576 252.654C356.048 253.067 355.515 253.473 354.977 253.872L354.679 253.47C354.145 253.866 353.605 254.255 353.06 254.637L353.347 255.046C352.799 255.431 352.245 255.808 351.686 256.179L351.41 255.762C350.856 256.129 350.297 256.49 349.732 256.843L349.998 257.267C349.43 257.622 348.858 257.97 348.281 258.311L348.026 257.88C347.454 258.219 346.876 258.549 346.294 258.873L346.537 259.31C345.952 259.635 345.362 259.953 344.768 260.263L344.537 259.82C343.947 260.128 343.353 260.428 342.755 260.721L342.975 261.17C342.374 261.464 341.768 261.75 341.159 262.029L340.951 261.574C340.346 261.851 339.737 262.12 339.124 262.381L339.32 262.841C338.704 263.103 338.085 263.357 337.462 263.604L337.278 263.139C336.659 263.384 336.037 263.62 335.41 263.849L335.582 264.319C334.954 264.548 334.323 264.77 333.688 264.983L333.529 264.509C332.898 264.721 332.264 264.925 331.626 265.121L331.773 265.599C331.134 265.795 330.492 265.983 329.847 266.163L329.712 265.682C329.072 265.86 328.428 266.031 327.781 266.193L327.902 266.678C327.254 266.84 326.603 266.995 325.949 267.141L325.84 266.653C325.191 266.798 324.539 266.934 323.885 267.062L323.981 267.553C323.325 267.681 322.667 267.802 322.005 267.913L321.922 267.42C321.267 267.531 320.609 267.634 319.948 267.728L320.019 268.223C319.358 268.317 318.694 268.403 318.027 268.48L317.969 267.983C317.31 268.06 316.647 268.128 315.983 268.188L316.028 268.686C315.362 268.745 314.695 268.797 314.025 268.84L313.993 268.341C313.33 268.383 312.665 268.417 311.999 268.443L312.018 268.942C311.35 268.968 310.681 268.985 310.009 268.994L310.003 268.494C309.669 268.498 309.335 268.5 309 268.5C308.665 268.5 308.331 268.498 307.997 268.494L307.991 268.994C307.319 268.985 306.65 268.968 305.982 268.942L306.002 268.443C305.335 268.417 304.67 268.383 304.007 268.341L303.976 268.84C303.305 268.797 302.638 268.745 301.973 268.686L302.017 268.188C301.353 268.128 300.69 268.06 300.031 267.983L299.973 268.48C299.307 268.403 298.643 268.317 297.981 268.223L298.052 267.728C297.391 267.634 296.733 267.531 296.078 267.42L295.995 267.913C295.333 267.802 294.675 267.682 294.019 267.553L294.116 267.062C293.461 266.934 292.809 266.798 292.16 266.653L292.051 267.141C291.397 266.995 290.746 266.84 290.098 266.678L290.219 266.193C289.572 266.031 288.928 265.86 288.288 265.682L288.153 266.163C287.508 265.983 286.866 265.795 286.227 265.599L286.374 265.121C285.736 264.925 285.102 264.721 284.472 264.509L284.312 264.983C283.677 264.77 283.046 264.548 282.418 264.319L282.59 263.849C281.963 263.621 281.341 263.384 280.722 263.139L280.538 263.604C279.915 263.358 279.296 263.103 278.681 262.841L278.876 262.381C278.263 262.12 277.654 261.851 277.049 261.574L276.841 262.029C276.232 261.75 275.626 261.464 275.026 261.17L275.245 260.721C274.647 260.428 274.053 260.128 273.463 259.82L273.232 260.263C272.638 259.953 272.048 259.635 271.463 259.31L271.706 258.873C271.124 258.549 270.546 258.219 269.974 257.88L269.72 258.311C269.142 257.97 268.57 257.622 268.002 257.267L268.268 256.843C267.704 256.49 267.144 256.129 266.59 255.762L266.314 256.179C265.755 255.808 265.201 255.431 264.653 255.046L264.94 254.637C264.395 254.255 263.855 253.866 263.321 253.47L263.023 253.872C262.485 253.473 261.952 253.067 261.424 252.654L261.732 252.261C261.207 251.851 260.689 251.434 260.175 251.011L259.857 251.397C259.34 250.97 258.829 250.537 258.323 250.098L258.651 249.721C258.149 249.284 257.652 248.841 257.162 248.392L256.824 248.76C256.33 248.308 255.842 247.849 255.36 247.384L255.707 247.024C255.228 246.562 254.755 246.094 254.289 245.619L253.932 245.97C253.462 245.493 252.999 245.009 252.542 244.519L252.907 244.178C252.453 243.692 252.005 243.199 251.564 242.701L251.189 243.033C250.745 242.532 250.307 242.025 249.876 241.512L250.259 241.19C249.831 240.681 249.409 240.166 248.994 239.646L248.603 239.957C248.186 239.433 247.775 238.904 247.371 238.369L247.77 238.068C247.369 237.537 246.975 237.001 246.588 236.46L246.181 236.751C245.792 236.206 245.409 235.656 245.034 235.1L245.448 234.82C245.076 234.269 244.71 233.713 244.352 233.152L243.931 233.421C243.57 232.857 243.217 232.288 242.872 231.713L243.3 231.455C242.957 230.886 242.621 230.311 242.293 229.732L241.858 229.979C241.528 229.396 241.205 228.809 240.89 228.217L241.332 227.982C241.019 227.396 240.714 226.804 240.417 226.208L239.97 226.431C239.671 225.833 239.38 225.229 239.096 224.622L239.55 224.411C239.269 223.808 238.995 223.201 238.73 222.59L238.271 222.789C238.005 222.176 237.746 221.558 237.495 220.936L237.959 220.749C237.71 220.133 237.469 219.512 237.237 218.887L236.768 219.062C236.535 218.435 236.309 217.805 236.092 217.171L236.565 217.009C236.349 216.38 236.142 215.747 235.942 215.11L235.465 215.259C235.265 214.622 235.074 213.981 234.891 213.337L235.372 213.2C235.19 212.56 235.016 211.917 234.851 211.271L234.367 211.395C234.201 210.747 234.044 210.097 233.895 209.444L234.383 209.333C234.235 208.684 234.096 208.033 233.965 207.379L233.475 207.477C233.344 206.822 233.222 206.164 233.108 205.503L233.601 205.418C233.488 204.763 233.383 204.106 233.287 203.445L232.793 203.517C232.697 202.856 232.609 202.193 232.53 201.526L233.027 201.467C232.949 200.808 232.879 200.146 232.818 199.481L232.321 199.527C232.26 198.862 232.207 198.194 232.163 197.524L232.662 197.492C232.619 196.83 232.584 196.165 232.558 195.498L232.059 195.518C232.033 194.85 232.015 194.181 232.007 193.509L232.507 193.503C232.502 193.169 232.5 192.835 232.5 192.5C232.5 192.165 232.502 191.831 232.507 191.497L232.007 191.491C232.015 190.819 232.033 190.15 232.059 189.482L232.558 189.502C232.584 188.835 232.619 188.17 232.662 187.508L232.163 187.475C232.207 186.806 232.26 186.138 232.321 185.473L232.818 185.519C232.879 184.854 232.949 184.192 233.027 183.532L232.53 183.474C232.609 182.807 232.697 182.144 232.793 181.483L233.287 181.555C233.383 180.894 233.488 180.237 233.601 179.582L233.108 179.497C233.222 178.836 233.344 178.178 233.475 177.523L233.965 177.621C234.096 176.967 234.235 176.316 234.383 175.667L233.895 175.556C234.044 174.903 234.201 174.253 234.367 173.605L234.851 173.729C235.016 173.083 235.19 172.44 235.372 171.8L234.891 171.663C235.074 171.019 235.265 170.378 235.465 169.741L235.942 169.89C236.142 169.253 236.349 168.62 236.565 167.991L236.092 167.829C236.309 167.195 236.535 166.565 236.768 165.938L237.237 166.113C237.469 165.488 237.71 164.867 237.959 164.251L237.495 164.064C237.746 163.442 238.005 162.824 238.271 162.211L238.73 162.41C238.995 161.799 239.269 161.192 239.55 160.589L239.096 160.378C239.38 159.771 239.671 159.167 239.97 158.569L240.417 158.792C240.714 158.196 241.019 157.604 241.332 157.018L240.89 156.783C241.205 156.191 241.528 155.604 241.858 155.021L242.293 155.268C242.621 154.689 242.957 154.114 243.3 153.545L242.872 153.287C243.217 152.712 243.571 152.143 243.931 151.579L244.352 151.848C244.71 151.287 245.076 150.731 245.448 150.18L245.034 149.9C245.409 149.344 245.792 148.794 246.181 148.249L246.588 148.54C246.975 147.999 247.369 147.463 247.77 146.932L247.371 146.631C247.775 146.096 248.186 145.567 248.603 145.043L248.994 145.354C249.409 144.834 249.831 144.319 250.259 143.81L249.876 143.488C250.307 142.975 250.745 142.468 251.189 141.967L251.564 142.299C252.005 141.801 252.453 141.308 252.907 140.822L252.542 140.481C252.999 139.991 253.462 139.508 253.932 139.03L254.289 139.381C254.755 138.906 255.228 138.438 255.707 137.976L255.36 137.616C255.842 137.151 256.33 136.692 256.824 136.24L257.162 136.608C257.652 136.159 258.149 135.716 258.651 135.279L258.323 134.902C258.829 134.463 259.34 134.03 259.857 133.603L260.175 133.989C260.689 133.566 261.207 133.149 261.732 132.739L261.424 132.346C261.952 131.933 262.485 131.527 263.023 131.128L263.321 131.53C263.855 131.134 264.395 130.745 264.94 130.363L264.653 129.954C265.201 129.569 265.755 129.192 266.314 128.821L266.59 129.238C267.144 128.871 267.703 128.51 268.268 128.157L268.002 127.733C268.57 127.378 269.142 127.03 269.72 126.689L269.974 127.12C270.546 126.781 271.124 126.451 271.706 126.127L271.463 125.69C272.048 125.365 272.638 125.047 273.232 124.737L273.463 125.18C274.053 124.872 274.647 124.572 275.245 124.279L275.025 123.83C275.626 123.536 276.232 123.25 276.841 122.971L277.049 123.426C277.654 123.149 278.263 122.88 278.876 122.619L278.68 122.159C279.296 121.897 279.915 121.643 280.538 121.396L280.722 121.861C281.341 121.616 281.963 121.38 282.59 121.151L282.418 120.681C283.046 120.452 283.677 120.23 284.312 120.017L284.471 120.491C285.102 120.279 285.736 120.075 286.374 119.879L286.227 119.401C286.866 119.205 287.508 119.017 288.153 118.837L288.288 119.318C288.928 119.14 289.572 118.969 290.219 118.807L290.098 118.322C290.746 118.16 291.397 118.005 292.051 117.859L292.16 118.347C292.809 118.202 293.461 118.066 294.115 117.938L294.019 117.447C294.675 117.319 295.333 117.198 295.995 117.087L296.078 117.58C296.733 117.469 297.391 117.366 298.052 117.272L297.981 116.777C298.642 116.683 299.306 116.597 299.973 116.52L300.031 117.017C300.69 116.94 301.353 116.872 302.017 116.812L301.972 116.314C302.638 116.255 303.305 116.203 303.975 116.16L304.007 116.659C304.67 116.617 305.335 116.583 306.001 116.557L305.982 116.058C306.65 116.032 307.319 116.015 307.991 116.006L307.997 116.506C308.331 116.502 308.665 116.5 309 116.5C309.335 116.5 309.669 116.502 310.003 116.506L310.009 116.006C310.681 116.015 311.35 116.032 312.018 116.058L311.998 116.557C312.665 116.583 313.33 116.617 313.993 116.659L314.024 116.16C314.695 116.203 315.362 116.255 316.027 116.314L315.983 116.812C316.647 116.872 317.31 116.94 317.969 117.017L318.027 116.52C318.693 116.597 319.357 116.683 320.019 116.777L319.948 117.272C320.609 117.366 321.267 117.469 321.922 117.58L322.005 117.087C322.667 117.198 323.325 117.318 323.981 117.447L323.884 117.938C324.539 118.066 325.191 118.202 325.84 118.347L325.949 117.859C326.603 118.005 327.254 118.16 327.902 118.322L327.781 118.807C328.428 118.969 329.072 119.14 329.712 119.318L329.847 118.837C330.492 119.017 331.134 119.205 331.773 119.401L331.626 119.879C332.264 120.075 332.898 120.279 333.528 120.491L333.688 120.017C334.323 120.23 334.954 120.452 335.582 120.681L335.41 121.151C336.037 121.379 336.659 121.616 337.278 121.861L337.462 121.396C338.085 121.642 338.704 121.897 339.319 122.159L339.124 122.619C339.737 122.88 340.346 123.149 340.951 123.426L341.159 122.971C341.768 123.25 342.374 123.536 342.974 123.83L342.755 124.279C343.353 124.572 343.947 124.872 344.537 125.18L344.768 124.737C345.362 125.047 345.952 125.365 346.537 125.69L346.294 126.127C346.876 126.451 347.454 126.781 348.026 127.12L348.28 126.689C348.858 127.03 349.43 127.378 349.998 127.733L349.732 128.157C350.296 128.51 350.856 128.871 351.41 129.238L351.686 128.821C352.245 129.192 352.799 129.569 353.347 129.954L353.06 130.363C353.605 130.745 354.145 131.134 354.679 131.53L354.977 131.128C355.515 131.527 356.048 131.933 356.576 132.346L356.268 132.739C356.793 133.149 357.311 133.566 357.825 133.989L358.143 133.603C358.66 134.03 359.171 134.463 359.677 134.902L359.349 135.279C359.851 135.716 360.348 136.159 360.838 136.608L361.176 136.24C361.67 136.692 362.158 137.151 362.64 137.616L362.293 137.976C362.772 138.438 363.245 138.906 363.711 139.381L364.068 139.03C364.538 139.507 365.001 139.991 365.458 140.481L365.093 140.822C365.547 141.308 365.995 141.801 366.436 142.299L366.811 141.967C367.255 142.468 367.693 142.975 368.124 143.488L367.741 143.81C368.169 144.319 368.591 144.834 369.006 145.354L369.397 145.043C369.814 145.567 370.225 146.096 370.629 146.631L370.23 146.932C370.631 147.463 371.025 147.999 371.412 148.54L371.819 148.249C372.208 148.794 372.591 149.344 372.966 149.9L372.552 150.18C372.924 150.731 373.29 151.287 373.648 151.848L374.069 151.579C374.43 152.143 374.783 152.712 375.128 153.287L374.7 153.545C375.043 154.114 375.379 154.689 375.707 155.268L376.142 155.021C376.472 155.604 376.795 156.191 377.11 156.783L376.668 157.018C376.981 157.604 377.286 158.196 377.583 158.792L378.03 158.569C378.329 159.167 378.62 159.771 378.904 160.378L378.45 160.589C378.731 161.192 379.005 161.799 379.27 162.41L379.729 162.211C379.995 162.824 380.254 163.442 380.505 164.064L380.041 164.251C380.29 164.867 380.531 165.488 380.763 166.113L381.232 165.938C381.465 166.565 381.691 167.195 381.908 167.829L381.435 167.991C381.651 168.62 381.858 169.253 382.058 169.89L382.535 169.741C382.735 170.378 382.926 171.019 383.109 171.663L382.628 171.8C382.81 172.44 382.984 173.083 383.149 173.729L383.633 173.605C383.799 174.253 383.956 174.903 384.105 175.556L383.617 175.667C383.765 176.316 383.904 176.967 384.035 177.621L384.525 177.523C384.656 178.178 384.778 178.836 384.892 179.497L384.399 179.582C384.512 180.237 384.617 180.894 384.713 181.555L385.207 181.483C385.303 182.144 385.391 182.807 385.47 183.474L384.973 183.533C385.051 184.192 385.121 184.854 385.182 185.519L385.679 185.473C385.74 186.138 385.793 186.806 385.837 187.476L385.338 187.508C385.381 188.17 385.416 188.835 385.442 189.502L385.941 189.482Z" stroke="white" stroke-dasharray="2 2"/>
<path d="M153.941 188.482C153.967 189.15 153.985 189.819 153.993 190.491L153.493 190.497C153.498 190.831 153.5 191.165 153.5 191.5C153.5 191.835 153.498 192.169 153.493 192.503L153.993 192.509C153.985 193.181 153.967 193.85 153.941 194.518L153.442 194.498C153.416 195.165 153.381 195.83 153.338 196.492L153.837 196.525C153.793 197.194 153.74 197.862 153.679 198.527L153.182 198.481C153.121 199.146 153.051 199.808 152.973 200.468L153.47 200.526C153.391 201.193 153.303 201.856 153.207 202.517L152.713 202.445C152.617 203.106 152.512 203.763 152.399 204.418L152.892 204.503C152.778 205.164 152.656 205.822 152.525 206.477L152.035 206.379C151.904 207.033 151.765 207.684 151.617 208.333L152.105 208.444C151.956 209.097 151.799 209.747 151.633 210.395L151.149 210.271C150.984 210.917 150.81 211.56 150.628 212.2L151.109 212.337C150.926 212.981 150.735 213.622 150.535 214.259L150.058 214.11C149.858 214.747 149.651 215.38 149.435 216.009L149.908 216.171C149.691 216.805 149.465 217.435 149.232 218.062L148.763 217.887C148.531 218.512 148.29 219.133 148.041 219.749L148.505 219.936C148.254 220.558 147.995 221.176 147.729 221.789L147.27 221.59C147.005 222.201 146.731 222.808 146.45 223.411L146.904 223.622C146.62 224.229 146.329 224.833 146.03 225.431L145.583 225.208C145.286 225.804 144.981 226.396 144.668 226.982L145.11 227.217C144.795 227.809 144.472 228.396 144.142 228.979L143.707 228.732C143.379 229.311 143.043 229.886 142.7 230.455L143.128 230.713C142.783 231.288 142.43 231.857 142.069 232.421L141.648 232.152C141.29 232.713 140.924 233.269 140.552 233.82L140.966 234.1C140.591 234.656 140.208 235.206 139.819 235.751L139.412 235.46C139.025 236.001 138.631 236.537 138.23 237.068L138.629 237.369C138.225 237.904 137.814 238.433 137.397 238.957L137.006 238.646C136.591 239.166 136.169 239.681 135.741 240.19L136.124 240.512C135.693 241.025 135.255 241.532 134.811 242.033L134.436 241.701C133.995 242.199 133.547 242.692 133.093 243.178L133.458 243.519C133.001 244.009 132.538 244.492 132.068 244.97L131.711 244.619C131.245 245.094 130.772 245.562 130.293 246.024L130.64 246.384C130.158 246.849 129.67 247.308 129.176 247.76L128.838 247.392C128.348 247.841 127.851 248.284 127.349 248.721L127.677 249.098C127.171 249.537 126.66 249.97 126.143 250.397L125.825 250.011C125.311 250.434 124.793 250.851 124.268 251.261L124.576 251.654C124.048 252.067 123.515 252.473 122.977 252.872L122.679 252.47C122.145 252.866 121.605 253.255 121.06 253.637L121.347 254.046C120.799 254.431 120.245 254.808 119.686 255.179L119.41 254.762C118.856 255.129 118.297 255.49 117.732 255.843L117.998 256.267C117.43 256.622 116.858 256.97 116.281 257.311L116.026 256.88C115.454 257.219 114.876 257.549 114.294 257.873L114.537 258.31C113.952 258.635 113.362 258.953 112.768 259.263L112.537 258.82C111.947 259.128 111.353 259.428 110.755 259.721L110.975 260.17C110.374 260.464 109.768 260.75 109.159 261.029L108.951 260.574C108.346 260.851 107.737 261.12 107.124 261.381L107.32 261.841C106.704 262.103 106.085 262.357 105.462 262.604L105.278 262.139C104.659 262.384 104.037 262.62 103.41 262.849L103.582 263.319C102.954 263.548 102.323 263.77 101.688 263.983L101.529 263.509C100.898 263.721 100.264 263.925 99.6259 264.121L99.7727 264.599C99.1342 264.795 98.4921 264.983 97.8466 265.163L97.7123 264.682C97.0718 264.86 96.4278 265.031 95.7806 265.193L95.9022 265.678C95.2543 265.84 94.6032 265.995 93.9489 266.141L93.84 265.653C93.1912 265.798 92.5394 265.934 91.8846 266.062L91.9807 266.553C91.3252 266.681 90.6667 266.802 90.0053 266.913L89.922 266.42C89.2669 266.531 88.609 266.634 87.9484 266.728L88.0188 267.223C87.3576 267.317 86.6936 267.403 86.0269 267.48L85.9693 266.983C85.3097 267.06 84.6475 267.128 83.9828 267.188L84.0276 267.686C83.3623 267.745 82.6946 267.797 82.0246 267.84L81.9926 267.341C81.3302 267.383 80.6655 267.417 79.9986 267.443L80.0177 267.942C79.3503 267.968 78.6807 267.985 78.009 267.994L78.0027 267.494C77.669 267.498 77.3347 267.5 77 267.5C76.6653 267.5 76.3311 267.498 75.9975 267.494L75.9911 267.994C75.3194 267.985 74.6498 267.968 73.9824 267.942L74.0015 267.443C73.3346 267.417 72.6699 267.383 72.0075 267.341L71.9755 267.84C71.3055 267.797 70.6378 267.745 69.9725 267.686L70.0173 267.188C69.3526 267.128 68.6904 267.06 68.0308 266.983L67.9732 267.48C67.3065 267.403 66.6425 267.317 65.9812 267.223L66.0517 266.728C65.3911 266.634 64.7331 266.531 64.0781 266.42L63.9947 266.913C63.3334 266.802 62.6749 266.682 62.0194 266.553L62.1155 266.062C61.4607 265.934 60.8088 265.798 60.1601 265.653L60.0512 266.141C59.3969 265.995 58.7457 265.84 58.0978 265.678L58.2195 265.193C57.5722 265.031 56.9283 264.86 56.2877 264.682L56.1535 265.163C55.508 264.983 54.8659 264.795 54.2274 264.599L54.3742 264.121C53.7364 263.925 53.1021 263.721 52.4715 263.509L52.3122 263.983C51.6771 263.77 51.0457 263.548 50.4181 263.319L50.5897 262.849C49.9632 262.621 49.3406 262.384 48.7219 262.139L48.5381 262.604C47.9148 262.358 47.2956 262.103 46.6805 261.841L46.8765 261.381C46.2632 261.12 45.6541 260.851 45.0492 260.574L44.8413 261.029C44.2317 260.75 43.6264 260.464 43.0255 260.17L43.2453 259.721C42.6468 259.428 42.0528 259.128 41.4633 258.82L41.2318 259.263C40.6376 258.953 40.0479 258.635 39.463 258.31L39.7059 257.873C39.1238 257.549 38.5463 257.219 37.9737 256.88L37.7195 257.311C37.1423 256.97 36.5699 256.622 36.0024 256.267L36.2678 255.843C35.7035 255.49 35.1442 255.129 34.59 254.762L34.3137 255.179C33.755 254.808 33.2014 254.431 32.6531 254.046L32.9401 253.637C32.3951 253.255 31.8554 252.866 31.321 252.47L31.0234 252.872C30.4848 252.473 29.9515 252.067 29.4239 251.654L29.7318 251.261C29.2074 250.851 28.6886 250.434 28.1754 250.011L27.8573 250.397C27.3402 249.97 26.8289 249.537 26.3234 249.098L26.6514 248.721C26.149 248.284 25.6524 247.841 25.1618 247.392L24.8241 247.76C24.33 247.308 23.8419 246.849 23.3599 246.384L23.7071 246.024C23.2281 245.562 22.7553 245.094 22.2886 244.619L21.9322 244.97C21.4624 244.493 20.9988 244.009 20.5416 243.519L20.907 243.178C20.4528 242.692 20.005 242.199 19.5635 241.701L19.1894 242.033C18.7451 241.532 18.3073 241.025 17.8762 240.512L18.2589 240.19C17.8307 239.681 17.4092 239.166 16.9943 238.646L16.6034 238.957C16.1858 238.433 15.7751 237.904 15.3712 237.369L15.7702 237.068C15.3693 236.537 14.9753 236.001 14.5882 235.46L14.1815 235.751C13.792 235.206 13.4094 234.656 13.034 234.1L13.4483 233.82C13.0758 233.269 12.7104 232.713 12.3523 232.152L11.9308 232.421C11.5705 231.857 11.2174 231.288 10.8716 230.713L11.3 230.455C10.957 229.886 10.6213 229.311 10.2931 228.732L9.8581 228.979C9.52804 228.396 9.20544 227.809 8.89042 227.217L9.33177 226.982C9.01928 226.396 8.71431 225.804 8.41698 225.208L7.96958 225.431C7.67084 224.833 7.37975 224.229 7.09645 223.622L7.5496 223.411C7.26856 222.808 6.99522 222.201 6.72974 221.59L6.27114 221.789C6.00464 221.176 5.74599 220.558 5.49532 219.936L5.95903 219.749C5.71028 219.133 5.46943 218.512 5.23661 217.887L4.76809 218.062C4.53467 217.435 4.30926 216.805 4.09199 216.171L4.56498 216.009C4.34928 215.38 4.14167 214.747 3.94225 214.11L3.46511 214.259C3.26546 213.622 3.07396 212.981 2.89076 212.337L3.3717 212.2C3.18985 211.56 3.01622 210.917 2.85092 210.271L2.36651 210.395C2.20105 209.747 2.04389 209.097 1.89515 208.444L2.38268 208.333C2.23517 207.684 2.09599 207.033 1.96527 206.379L1.47496 206.477C1.34412 205.822 1.22169 205.164 1.10779 204.503L1.60053 204.418C1.48768 203.763 1.38327 203.106 1.2874 202.445L0.792585 202.517C0.696629 201.856 0.609177 201.193 0.530345 200.526L1.02688 200.467C0.948861 199.808 0.879338 199.146 0.818424 198.481L0.320511 198.527C0.259545 197.862 0.207147 197.194 0.163429 196.524L0.662367 196.492C0.619145 195.83 0.584462 195.165 0.558426 194.498L0.0588062 194.518C0.0327505 193.85 0.0152996 193.181 0.00656082 192.509L0.506518 192.503C0.502177 192.169 0.5 191.835 0.5 191.5C0.5 191.165 0.502178 190.831 0.50652 190.497L0.00656211 190.491C0.0153018 189.819 0.0327534 189.15 0.0588098 188.482L0.558429 188.502C0.584466 187.835 0.61915 187.17 0.662373 186.508L0.163435 186.475C0.207154 185.806 0.259552 185.138 0.320519 184.473L0.818432 184.519C0.879346 183.854 0.94887 183.192 1.02689 182.532L0.530355 182.474C0.609188 181.807 0.69664 181.144 0.792597 180.483L1.28741 180.555C1.38328 179.894 1.48769 179.237 1.60054 178.582L1.1078 178.497C1.2217 177.836 1.34413 177.178 1.47498 176.523L1.96529 176.621C2.09601 175.967 2.23519 175.316 2.3827 174.667L1.89517 174.556C2.0439 173.903 2.20106 173.253 2.36653 172.605L2.85094 172.729C3.01623 172.083 3.18987 171.44 3.37172 170.8L2.89078 170.663C3.07398 170.019 3.26547 169.378 3.46513 168.741L3.94227 168.89C4.14168 168.253 4.3493 167.62 4.56499 166.991L4.092 166.829C4.30927 166.195 4.53468 165.565 4.76811 164.938L5.23663 165.113C5.46945 164.488 5.71029 163.867 5.95904 163.251L5.49533 163.064C5.74601 162.442 6.00466 161.824 6.27116 161.211L6.72975 161.41C6.99524 160.799 7.26857 160.192 7.54961 159.589L7.09646 159.378C7.37976 158.771 7.67085 158.167 7.96959 157.569L8.41699 157.792C8.71432 157.196 9.01929 156.604 9.33177 156.018L8.89043 155.783C9.20545 155.191 9.52805 154.604 9.85811 154.021L10.2931 154.268C10.6214 153.689 10.957 153.114 11.3 152.545L10.8716 152.287C11.2174 151.712 11.5705 151.143 11.9308 150.579L12.3523 150.848C12.7105 150.287 13.0758 149.731 13.4483 149.18L13.034 148.9C13.4094 148.344 13.792 147.794 14.1815 147.249L14.5882 147.54C14.9753 146.999 15.3693 146.463 15.7702 145.932L15.3712 145.631C15.7751 145.096 16.1858 144.567 16.6033 144.043L16.9943 144.354C17.4092 143.834 17.8307 143.319 18.2589 142.81L17.8762 142.488C18.3073 141.975 18.7451 141.468 19.1894 140.967L19.5635 141.299C20.005 140.801 20.4528 140.308 20.907 139.822L20.5416 139.481C20.9988 138.991 21.4623 138.508 21.9322 138.03L22.2886 138.381C22.7553 137.906 23.2281 137.438 23.7071 136.976L23.3599 136.616C23.8419 136.151 24.33 135.692 24.8241 135.24L25.1618 135.608C25.6524 135.159 26.149 134.716 26.6513 134.279L26.3233 133.902C26.8289 133.463 27.3402 133.03 27.8573 132.603L28.1754 132.989C28.6886 132.566 29.2074 132.149 29.7318 131.739L29.4238 131.346C29.9515 130.933 30.4847 130.527 31.0234 130.128L31.321 130.53C31.8554 130.134 32.3951 129.745 32.9401 129.363L32.6531 128.954C33.2014 128.569 33.7549 128.192 34.3137 127.821L34.59 128.238C35.1442 127.871 35.7035 127.51 36.2678 127.157L36.0024 126.733C36.5698 126.378 37.1422 126.03 37.7195 125.689L37.9737 126.12C38.5463 125.781 39.1237 125.451 39.7058 125.127L39.463 124.69C40.0479 124.365 40.6376 124.047 41.2318 123.737L41.4632 124.18C42.0527 123.872 42.6468 123.572 43.2452 123.279L43.0255 122.83C43.6263 122.536 44.2316 122.25 44.8412 121.971L45.0491 122.426C45.654 122.149 46.2632 121.88 46.8764 121.619L46.6804 121.159C47.2955 120.897 47.9148 120.643 48.538 120.396L48.7219 120.861C49.3405 120.616 49.9632 120.38 50.5896 120.151L50.418 119.681C51.0456 119.452 51.677 119.23 52.3122 119.017L52.4714 119.491C53.102 119.279 53.7363 119.075 54.3741 118.879L54.2273 118.401C54.8658 118.205 55.5079 118.017 56.1534 117.837L56.2877 118.318C56.9282 118.14 57.5721 117.969 58.2194 117.807L58.0978 117.322C58.7457 117.16 59.3968 117.005 60.0511 116.859L60.16 117.347C60.8088 117.202 61.4606 117.066 62.1154 116.938L62.0193 116.447C62.6748 116.319 63.3333 116.198 63.9947 116.087L64.078 116.58C64.7331 116.469 65.391 116.366 66.0516 116.272L65.9812 115.777C66.6424 115.683 67.3064 115.597 67.9731 115.52L68.0307 116.017C68.6903 115.94 69.3525 115.872 70.0172 115.812L69.9724 115.314C70.6377 115.255 71.3054 115.203 71.9754 115.16L72.0074 115.659C72.6698 115.617 73.3345 115.583 74.0014 115.557L73.9823 115.058C74.6497 115.032 75.3193 115.015 75.991 115.006L75.9973 115.506C76.331 115.502 76.6653 115.5 77 115.5C77.3347 115.5 77.6689 115.502 78.0025 115.506L78.0089 115.006C78.6806 115.015 79.3502 115.032 80.0176 115.058L79.9985 115.557C80.6654 115.583 81.3301 115.617 81.9925 115.659L82.0245 115.16C82.6945 115.203 83.3622 115.255 84.0275 115.314L83.9827 115.812C84.6474 115.872 85.3096 115.94 85.9692 116.017L86.0268 115.52C86.6935 115.597 87.3575 115.683 88.0188 115.777L87.9483 116.272C88.6089 116.366 89.2669 116.469 89.9219 116.58L90.0053 116.087C90.6666 116.198 91.3251 116.318 91.9806 116.447L91.8845 116.938C92.5393 117.066 93.1912 117.202 93.8399 117.347L93.9488 116.859C94.6031 117.005 95.2543 117.16 95.9022 117.322L95.7805 117.807C96.4278 117.969 97.0717 118.14 97.7123 118.318L97.8465 117.837C98.492 118.017 99.1341 118.205 99.7726 118.401L99.6258 118.879C100.264 119.075 100.898 119.279 101.528 119.491L101.688 119.017C102.323 119.23 102.954 119.452 103.582 119.681L103.41 120.151C104.037 120.379 104.659 120.616 105.278 120.861L105.462 120.396C106.085 120.642 106.704 120.897 107.319 121.159L107.124 121.619C107.737 121.88 108.346 122.149 108.951 122.426L109.159 121.971C109.768 122.25 110.374 122.536 110.974 122.83L110.755 123.279C111.353 123.572 111.947 123.872 112.537 124.18L112.768 123.737C113.362 124.047 113.952 124.365 114.537 124.69L114.294 125.127C114.876 125.451 115.454 125.781 116.026 126.12L116.28 125.689C116.858 126.03 117.43 126.378 117.998 126.733L117.732 127.157C118.296 127.51 118.856 127.871 119.41 128.238L119.686 127.821C120.245 128.192 120.799 128.569 121.347 128.954L121.06 129.363C121.605 129.745 122.145 130.134 122.679 130.53L122.977 130.128C123.515 130.527 124.048 130.933 124.576 131.346L124.268 131.739C124.793 132.149 125.311 132.566 125.825 132.989L126.143 132.603C126.66 133.03 127.171 133.463 127.677 133.902L127.349 134.279C127.851 134.716 128.348 135.159 128.838 135.608L129.176 135.24C129.67 135.692 130.158 136.151 130.64 136.616L130.293 136.976C130.772 137.438 131.245 137.906 131.711 138.381L132.068 138.03C132.538 138.507 133.001 138.991 133.458 139.481L133.093 139.822C133.547 140.308 133.995 140.801 134.436 141.299L134.811 140.967C135.255 141.468 135.693 141.975 136.124 142.488L135.741 142.81C136.169 143.319 136.591 143.834 137.006 144.354L137.397 144.043C137.814 144.567 138.225 145.096 138.629 145.631L138.23 145.932C138.631 146.463 139.025 146.999 139.412 147.54L139.819 147.249C140.208 147.794 140.591 148.344 140.966 148.9L140.552 149.18C140.924 149.731 141.29 150.287 141.648 150.848L142.069 150.579C142.43 151.143 142.783 151.712 143.128 152.287L142.7 152.545C143.043 153.114 143.379 153.689 143.707 154.268L144.142 154.021C144.472 154.604 144.795 155.191 145.11 155.783L144.668 156.018C144.981 156.604 145.286 157.196 145.583 157.792L146.03 157.569C146.329 158.167 146.62 158.771 146.904 159.378L146.45 159.589C146.731 160.192 147.005 160.799 147.27 161.41L147.729 161.211C147.995 161.824 148.254 162.442 148.505 163.064L148.041 163.251C148.29 163.867 148.531 164.488 148.763 165.113L149.232 164.938C149.465 165.565 149.691 166.195 149.908 166.829L149.435 166.991C149.651 167.62 149.858 168.253 150.058 168.89L150.535 168.741C150.735 169.378 150.926 170.019 151.109 170.663L150.628 170.8C150.81 171.44 150.984 172.083 151.149 172.729L151.633 172.605C151.799 173.253 151.956 173.903 152.105 174.556L151.617 174.667C151.765 175.316 151.904 175.967 152.035 176.621L152.525 176.523C152.656 177.178 152.778 177.836 152.892 178.497L152.399 178.582C152.512 179.237 152.617 179.894 152.713 180.555L153.207 180.483C153.303 181.144 153.391 181.807 153.47 182.474L152.973 182.533C153.051 183.192 153.121 183.854 153.182 184.519L153.679 184.473C153.74 185.138 153.793 185.806 153.837 186.476L153.338 186.508C153.381 187.17 153.416 187.835 153.442 188.502L153.941 188.482Z" stroke="white" stroke-dasharray="2 2"/>
<path fill-rule="evenodd" clip-rule="evenodd" d="M197.068 48.8571L195 41.1389C244.191 27.9581 294.914 53.6288 314.199 99.4171L325.773 96.3158L317.704 126.43L295.659 104.385L306.401 101.507C288.34 60.0204 242.072 36.7984 197.068 48.8571Z" fill="#009F9C"/>
<path fill-rule="evenodd" clip-rule="evenodd" d="M337.574 193.068L345.292 191C358.473 240.191 332.802 290.914 287.014 310.199L290.115 321.773L260 313.704L282.046 291.659L284.924 302.401C326.41 284.34 349.632 238.072 337.574 193.068Z" fill="#009F9C"/>
<path fill-rule="evenodd" clip-rule="evenodd" d="M190.675 334.916L192.743 342.635C143.552 355.815 92.8291 330.145 73.5442 284.356L61.9698 287.458L70.039 257.343L92.0844 279.388L81.3425 282.267C99.4028 323.753 145.671 346.975 190.675 334.916Z" fill="#009F9C"/>
<path fill-rule="evenodd" clip-rule="evenodd" d="M50.1696 190.705L42.4514 192.773C29.2706 143.582 54.9413 92.8594 100.73 73.5744L97.6283 62.0001L127.743 70.0693L105.698 92.1147L102.819 81.3728C61.3329 99.4331 38.1109 145.702 50.1696 190.705Z" fill="#009F9C"/>
</svg>
